<?xml version="1.0" standalone="no"?>
<!DOCTYPE svg PUBLIC "-//W3C//DTD SVG 1.1//EN" "http://www.w3.org/Graphics/SVG/1.1/DTD/svg11.dtd" >
<svg xmlns="http://www.w3.org/2000/svg">
<metadata></metadata>
<defs>
<font id="sunday_best_fancy_shadosimple" horiz-adv-x="676" >
<font-face units-per-em="1000" ascent="800" descent="-200" />
<missing-glyph horiz-adv-x="300" />
<glyph horiz-adv-x="1000" />
<glyph horiz-adv-x="1000" />
<glyph unicode="&#xd;" horiz-adv-x="1000" />
<glyph unicode=" "  horiz-adv-x="300" />
<glyph unicode="&#x09;" horiz-adv-x="300" />
<glyph unicode="&#xa0;" horiz-adv-x="300" />
<glyph unicode="0" horiz-adv-x="712" d="M487 252q4 31 -2.5 55t-14 32t-9.5 8q-1 1 -1 3q0 3 1 3q34 34 26 95q-11 102 -45 158t-86 56t-86 -55.5t-45 -158.5q-8 -61 25 -94q2 -2 2 -4t-1 -3q-2 0 -9.5 -8t-14 -32t-2.5 -55q11 -102 45 -158t86 -56t86 56t45 158zM698 354q2 -2 2 -4q0 -1 -2 -3 q-15 -8 -24.5 -26.5t-11 -27t-5.5 -29.5l-1 -4q-36 -260 -300 -260t-300 262v2q-8 65 -41 83q-2 2 -2 3q0 2 2 4q32 17 41 82v3q36 261 300 261q265 0 301 -261v-3q0 -1 1.5 -8.5t2 -11t2.5 -11t4 -12t5 -11.5t6.5 -11.5t8.5 -9t11 -7.5zM729 349q0 16 -15 24q-21 11 -29 65 v5q-39 279 -323 279h-4q-3 0 -3 -4t3 -4q273 -2 311 -272l1 -5q8 -57 33 -71q10 -5 10 -17t-10 -17q-25 -14 -33 -71l-1 -5q-38 -270 -311 -272q-3 0 -3 -4t3 -4h4q284 0 323 279v5q8 54 29 65q15 8 15 24zM359 53h-2h-2q-91 0 -116 200q-4 26 1 45.5t9.5 26t8.5 8.5 q9 5 9 16q0 10 -9 16q-26 26 -19 80q25 200 116 200h2h2q3 0 3 -4t-3 -4q-81 -3 -105 -193q-3 -24 1 -42.5t9 -24.5l6 -6q13 -8 13 -23q-2 -15 -13 -22q-2 0 -6.5 -6t-8.5 -24t-1 -42q24 -190 105 -193q3 -1 3 -4q0 -4 -3 -4z" />
<glyph unicode="1" horiz-adv-x="254" d="M249 346q-30 -16 -35 -68v-182q0 -24 7 -40.5t13 -21t8 -4.5q3 -2 2 -6q-12 -24 -49 -24q-42 0 -68 33q-23 -33 -67 -33q-6 0 -12 1t-10.5 2.5t-8.5 3.5t-6.5 4.5t-5 4.5t-3.5 3.5t-2 2.5l-1 2q-3 3 2 6h1q1 1 3 2.5l4 3t4 4.5t4.5 6.5t4.5 8.5t3.5 11t2.5 13.5t1 16.5 v178q-2 55 -34 72q-2 1 -2 4q0 2 2 3q32 17 34 73v177q0 24 -7 40.5t-13 21t-8 4.5t-3 2.5t1 3.5q0 2 4.5 7t16.5 11.5t28 6.5q43 0 67 -34q27 34 68 34q7 0 13.5 -1.5t11.5 -3.5t9 -4.5t6.5 -5.5t4.5 -5t3 -4l1 -1q3 -3 -2 -6q-2 0 -8 -4.5t-13 -21t-7 -40.5v-182 q5 -52 35 -68q2 -2 2 -3q0 -2 -2 -4zM134 5l-1 1q-1 0 -3 2t-5 0q-27 -23 -62 -24q-3 0 -3 -4t3 -4h1h4q37 0 66 23q1 1 1 3t-1 3zM68 722q38 0 66 -22q1 -1 1 -3q0 -3 -1 -3l-1 -1q-2 -2 -3 -2l-2 -1q-2 0 -3 1q-27 23 -62 24q-3 0 -3 3q0 4 3 4h5zM260 51q10 -5 15 -15 q4 -12 -3 -23q-7 -13 -25 -25t-44 -12h-2h-2q-3 0 -3 4t3 4q41 2 59 33q4 9 2 16q-5 9 -11 10l-1 1q-18 14 -18 52v162q0 59 26 74q10 5 10 17q0 10 -10 17q-26 14 -26 73v164q0 39 18 52h1q7 3 11 11q2 7 -2 16q-19 31 -59 33q-3 0 -3 3q0 4 3 4h2h2q26 0 44 -11.5 t25 -24.5q7 -11 3 -23q-5 -12 -15 -15q-15 -10 -15 -45v-164q0 -55 22 -67q15 -7 15 -23t-15 -24q-22 -12 -22 -67v-162q0 -40 15 -45z" />
<glyph unicode="2" horiz-adv-x="708" d="M655 30q1 0 3 -2q0 -2 -1 -3q0 -2 -4.5 -7t-16.5 -11.5t-28 -6.5q-44 0 -68 35q-38 -35 -153 -35h-62q-98 0 -138 36q-36 -36 -83 -36q-16 0 -28 6.5t-16.5 11.5t-4.5 7q-1 1 -0.5 2.5t1.5 2.5q4 2 39.5 31.5t97.5 89.5t110 119q13 20 16.5 40.5t-7.5 35.5q-2 1 -1.5 3.5 t2.5 3.5q28 11 52.5 32t36.5 42q19 45 24 90q6 73 -27 109q-27 30 -78 30q-55 0 -98 -44.5t-53 -138.5q0 -4 -4 -4q-29 0 -41 15.5t-12 71.5q0 26 -6 47t-15 33t-18 20t-15 10l-6 3l-3 3v3l1 1q1 2 2.5 3.5t3.5 4t5 4.5t7 4.5t8.5 4t10.5 2.5t12 1q40 0 68 -35q39 35 153 35 q44 0 80 -3t78.5 -14.5t70.5 -30.5t47.5 -54t19.5 -83q0 -44 -16 -89q-13 -56 8 -74q2 -2 2 -3q0 -3 -3 -3q-42 -17 -114 -81q-42 -42 -112 -90.5t-137 -79.5h149q38 0 66.5 13.5t42.5 31t23 39t10.5 32.5t1.5 16q0 4 4 4q29 0 41 -15.5t12 -71.5q0 -15 2 -28.5t5.5 -23.5 t8 -19t9.5 -15t9.5 -11t9.5 -8t8 -5t5 -3zM324 633q4 0 4 4t-4 4h-3q-49 0 -88 -41.5t-48 -128.5q-2 -15 -18 -17q-3 0 -3 -4t4 -4h6q23 0 27 24q5 51 21 86.5t37.5 50.5t36 20t28.5 6zM517 247l-1 -1q-4 -3 -9 -8q-73 -69 -175 -128h-9q-4 0 -4 3q-1 2 2 4q103 60 173 127 q5 5 9 8l1 1q72 62 110 78q11 5 12 15q2 11 -7 18q-16 13 -2 59l3 9v1q0 2 1 2q11 42 11 80q0 200 -304 200q-4 0 -4 4t4 4q28 0 46 -0.5t55 -4.5t62.5 -11.5t57 -22.5t51 -36.5t33.5 -55.5t14 -77q0 -40 -11 -81v-1q-1 -1 -1 -2l-3 -10q-13 -41 -1 -51q12 -9 10 -25 q-2 -14 -17 -21q-40 -16 -107 -77zM173 687h-2q-2 0 -3 1q-26 26 -65 27q-4 0 -4 4t4 4h5q42 0 70 -27q2 -2 2 -3q0 -3 -2 -3q-4 -2 -5 -3zM542 10h1q1 -1 1 -4q0 -1 -2 -3q-52 -26 -147 -26h-8q-3 0 -3 4t3 4q101 0 148 28q4 0 5 -1zM190 15l4 -3q2 0 2 -3q0 -1 -2 -3 q-40 -29 -82 -29h-5q-4 0 -4 4t4 4q37 1 79 29q1 1 4 1zM687 37q4 -12 -2 -23q-7 -13 -25 -25t-44 -12h-3q-4 0 -4 4t4 4q41 1 58 32q4 7 1 17q-3 7 -12 11q-3 0 -13 6.5t-23 31t-13 61.5q0 59 -15 79.5t-48 22.5q-4 0 -4 4q0 2 4 4h2q39 0 57.5 -22.5t18.5 -87.5 q0 -12 1.5 -23t4 -19t5.5 -15t7 -12t7.5 -9t7 -6.5t6 -4t3.5 -2.5l2 -1q12 -3 17 -15z" />
<glyph unicode="3" horiz-adv-x="654" d="M478 359q18 -5 35 -13.5t40 -27t37 -53.5t14 -81q0 -38 -12.5 -68t-29.5 -49t-45.5 -32.5t-51 -20t-55.5 -10t-49 -4t-41 -0.5q-75 0 -152 36q-24 -36 -68 -36q-6 0 -12 1t-10.5 2.5t-8.5 4t-7 4.5t-5.5 4.5t-3.5 4t-2 3.5l-1 1v3q2 2 3 2q60 30 60 114q0 56 12 71.5 t40 15.5q4 0 4 -4q0 -5 2 -21t11.5 -46.5t24.5 -56.5t45 -46t69 -20q109 0 109 143q0 53 -20 78.5t-47 25.5q-28 0 -42 -20q-2 -2 -5 -1l-2 1l-2.5 2.5t-3.5 4t-4 5.5t-4 7t-3 9t-1 11q0 34 26 54q-26 20 -26 54q0 13 5 23t9.5 13.5t5.5 3.5q4 2 5 -1q13 -18 33 -18 q21 0 35.5 21t14.5 60q0 140 -86 149q-2 0 -6.5 0.5t-7.5 0.5q-34 0 -60.5 -20t-39.5 -46t-22 -56.5t-11 -46.5t-2 -21q0 -4 -4 -4q-28 0 -40 15.5t-12 71.5q0 19 -3.5 35.5t-8.5 28t-11.5 20.5t-13 14.5t-11.5 9t-9 4.5l-3 2q-1 0 -3 2v3l1 1q1 2 2 3.5t3.5 4t5.5 4.5 t7 4.5t8.5 4t10.5 2.5t12 1q42 0 67 -35q42 35 153 35q37 0 70 -4.5t67 -18t57.5 -35t39 -57.5t15.5 -83q0 -42 -18.5 -74.5t-35.5 -46t-37 -22.5zM367 268q-20 3 -33 -13q-4 -5 -12 -7q-3 -2 -3 -4q0 -4 3 -4h4q14 0 22 11q7 8 19 10q4 0 4 4q0 3 -4 3zM331 57q0 -4 -4 -4 h-5q-41 0 -70.5 23t-42.5 58t-17.5 55.5t-6.5 36.5v2q0 16 -18 18q-3 0 -3 4q0 3 3 3h7q11 0 18.5 -7.5t8.5 -17.5q0 -6 2 -20.5t9.5 -40.5t20 -48.5t37.5 -40t57 -18.5q4 0 4 -3zM322 466q-4 2 -4 4q0 4 4 4h2l2 1q13 0 22 -12q5 -7 12 -8q3 0 3 -3q0 -4 -3 -4q-2 -1 -5 -1 q-14 0 -21 12q-5 7 -12 7zM176 16l5 -2l3 -3l-1 -4q-32 -30 -75 -30h-5q-4 0 -4 4q0 2 4 4q39 0 69 30q1 1 4 1zM538 364q97 -54 97 -180q0 -207 -307 -207q-4 0 -4 4q0 3 4 3q292 2 292 200q0 127 -99 175q-2 2 -2 3q0 3 1 4q65 50 65 136q0 102 -67.5 157t-193.5 56 q-4 0 -4 4t4 4h4q132 0 202 -57t70 -164q0 -86 -62 -138zM167 454q18 2 18 18q0 4 2 19t9.5 43t19.5 52t35.5 42.5t53.5 18.5h4q3 0 3 -4t-3 -4q-27 -1 -48 -19t-32 -41t-18 -49.5t-8.5 -40.5t-1.5 -18q-1 -10 -8.5 -17.5t-18.5 -7.5h-6q-4 0 -4 4t3 4zM103 715q-4 0 -4 4 t4 4h5q42 0 70 -27q2 -2 2 -3q0 -3 -2 -3q-4 -2 -5 -3h-2q-2 0 -3 1q-26 26 -65 27z" />
<glyph unicode="4" horiz-adv-x="680" d="M611 198q19 -16 19 -40q0 -15 -11 -26q-5 -5 -7 -5l-3 2q-6 12 -18 19t-21.5 9t-29.5 5v-66q0 -49 27 -66h1q2 0 2 -2q2 -2 0 -3q0 -2 -4.5 -7t-16.5 -11.5t-28 -6.5q-45 0 -67 34q-25 -34 -68 -34q-7 0 -13.5 1.5t-11.5 3.5t-9 4.5t-6.5 5.5t-4.5 5t-3 4l-1 1q-1 1 0 3 q0 2 2 2h1q1 1 3 2.5t4 3.5t4 4.5t4.5 6.5t4.5 9t3.5 10.5t2.5 13t1 16.5v68h-175q-42 0 -55 21q-24 -21 -47 -21q-16 0 -26 6.5t-12 13.5l-2 6v3q1 1 3 1q3 0 8.5 2.5t20.5 20t29 45.5l11 22q20 47 -1 62q-4 4 1 7q46 31 78 83q34 68 68 134l18 35q6 12 6 23t-3.5 18t-9 13 t-8.5 8t-5 3q-2 2 -2 4t3 7t17 12t37 7q60 0 96 -36q40 36 96 36q10 0 19 -1.5t14.5 -3.5t10 -5t7 -5.5t4 -5t2.5 -3.5l1 -2q0 -2 -3 -4h-1q-1 -1 -3 -2.5t-4 -3.5t-4 -4.5t-4.5 -6.5t-4.5 -9t-3.5 -10.5t-2.5 -13t-1 -16.5v-164q0 -69 34 -88q2 0 2 -3t-2 -3 q-34 -19 -34 -86v-26q23 3 32 5t20 9t17 19l2 2q2 0 3 -1q1 0 4.5 -3t7.5 -10.5t4 -16.5q0 -24 -19 -40zM239 232h128v356q-5 -9 -83.5 -163t-83.5 -166q-6 -11 -2 -19q5 -8 41 -8zM321 719q0 -4 4 -4q48 -1 90 -29l2 -1q2 0 3 1t2 1l1 1q2 2 2 3q0 2 -2 4q-43 28 -94 28h-3 h-1q-4 0 -4 -4zM349 512q3 -3 3 -4v-15q0 -1 -0.5 -1t-0.5 -1q-12 -23 -61.5 -120.5t-58.5 -115.5h5q4 0 4 -4t-4 -4h-5q-3 0 -7.5 0.5t-6.5 0.5q-1 0 -3 2v3q4 10 130 257q2 2 5 2zM593 373q15 -8 15 -24t-15 -24q-22 -12 -22 -65v-2q0 -2 -3 -4q-1 0 -3.5 -0.5t-4.5 -0.5 q0 -1 -1 -1q-1 1 -2 1q-1 1 -1 3v4q0 58 26 72q10 7 10 17q0 12 -10 17q-26 14 -26 74v164q0 42 18 51l1 1q14 5 11 22q-12 36 -68 37q-4 0 -4 4t4 4h1h2q30 0 50 -11t24.5 -19t5.5 -14q5 -23 -15 -30q-15 -10 -15 -45v-164q0 -55 22 -67zM586 51q10 -3 15 -15q3 -12 -3 -22 q-7 -13 -25 -25t-44 -12h-2h-2q-3 0 -3 4t3 4q39 1 59 32q5 9 2 16q-5 10 -11 11q-1 0 -1 1q-18 9 -18 51v44q0 2 1 3h3q2 0 4.5 -0.5t3.5 -0.5q3 -2 3 -4v-42q0 -35 15 -45zM661 238q0 -22 -12 -40q12 -18 12 -40q0 -26 -18 -43q-11 -11 -23 -11h-3l-1 1q-3 0 -3 3q0 4 3 4 q6 1 14 9q15 13 15 37q0 21 -11 38q-2 2 0 4q11 17 11 38q0 7 -1.5 13.5t-4 11t-5.5 8t-5 5.5t-5 4l-2 2q-1 1 -3.5 1.5t-3.5 0.5q-3 0 -3 3q0 4 3 4q10 2 18 -3q3 -1 8.5 -5.5t12.5 -17t7 -27.5zM456 9l3 -3q2 -2 2 -3q0 -3 -1 -3q-29 -23 -66 -23h-4h-1q-3 0 -3 4t3 4 q37 1 62 24q3 2 5 0zM138 163q2 -2 3 -2q2 -2 2 -4q0 -1 -2 -3q-22 -13 -44 -13h-3h-1q-4 0 -4 4t4 4q21 1 40 14q3 1 5 0z" />
<glyph unicode="5" horiz-adv-x="664" d="M613 675q1 -1 0 -3q0 -2 -2 -2q-3 -1 -7.5 -3t-14.5 -10.5t-18 -20t-14 -33t-6 -47.5q0 -56 -12 -71.5t-41 -15.5q-1 0 -3 2q-1 0 -1 3q3 47 -30 81q-34 37 -104 37q-61 0 -96.5 -18t-37.5 -49q-2 -48 -9 -117q54 25 134 25q182 0 211 -141q15 -57 44 -72q2 -2 2 -4 q0 -1 -2 -3q-34 -18 -43 -54v1q-11 -48 -38.5 -82t-64.5 -50t-70.5 -22t-69.5 -6q-114 0 -153 35q-25 -35 -67 -35q-6 0 -12 1t-10.5 2.5t-8.5 4t-7 4.5t-5.5 4.5t-3.5 4t-2 3.5l-1 1v3q2 2 3 2q60 30 60 114q0 56 12 71.5t40 15.5q1 0 3 -2q1 0 1 -2q0 -13 1 -31t14 -60 t36 -66q32 -32 79 -32q69 0 93 88q6 27 -1 48.5t-15.5 30t-10.5 8.5q-2 2 -2 3q0 2 2 4q4 2 11.5 12t15.5 33t-4 53q-23 61 -93 61q-11 0 -21 -2t-17 -5t-13 -7t-10.5 -9t-7.5 -9.5t-5 -9t-3.5 -7.5t-1.5 -6l-1 -2q0 -3 -3 -3l-2 -1h-5t-7 -0.5t-9 -0.5t-10.5 0.5t-11 2 t-10.5 3.5t-10.5 5.5t-9.5 7.5q-16 18 -13 51l2 26q3 58 -29 76q-2 2 -2 3q0 2 2 4q32 15 38 66q2 40 2 42q0 24 -7 40.5t-13 21t-8 4.5t-2 2v3l1 1q1 2 3 4t4.5 5t6.5 5.5t9 4.5t11.5 3.5t13.5 1.5q44 0 69 -35q47 35 137 35q74 0 133 -36q25 36 69 36q7 0 13.5 -1.5 t11.5 -3.5t9 -4.5t6.5 -5.5t4.5 -5t3 -4zM237 456l-2 -19q0 -1 2 -3q0 -1 2 -1h1l8 3q3 0 3 3l1 16q4 38 5 68q4 44 106 46q4 0 4 4t-4 4h-2q-48 0 -82.5 -13t-36.5 -40q-4 -45 -5 -68zM365 715q-3 0 -3 4t3 4h5q67 0 125 -28l3 -3q0 -2 -2 -4h-1l-1 -1v-1q-1 -1 -3 -1h-2 q-60 30 -124 30zM304 61q4 0 4 -3q0 -4 -4 -4h-5q-41 0 -67 26q-47 48 -47 146q0 9 -5 14q-4 4 -13 6q-4 0 -4 4q0 2 4 4h6q12 0 20 -8q8 -10 7 -20q0 -11 1.5 -28t12.5 -54.5t31 -57.5q24 -24 59 -25zM301 363q3 0 3 -3q0 -4 -3 -4q-21 0 -35 -10t-17 -17.5t-3 -10.5 q-3 -17 -21 -22h-3q-4 -1 -10.5 -1.5t-13.5 -0.5h-1q-4 0 -4 4t4 4t8.5 0.5t7.5 1.5h3q13 2 15 16q0 4 3.5 12.5t20 20t41.5 11.5h4q0 -1 1 -1zM641 686q6 -11 2 -23q-5 -12 -17 -15q-44 -22 -44 -92q0 -65 -18.5 -87.5t-57.5 -22.5h-2q-3 3 -3 5q0 3 3 3q33 2 48 22.5 t15 79.5q0 74 49 99q9 4 12 11q3 10 -1 17q-17 31 -58 32q-4 0 -4 4t4 4h3q26 0 44 -12t25 -25zM625 240q14 -9 14 -24q0 -16 -14 -23q-19 -10 -32 -41q-19 -85 -87.5 -130t-177.5 -45h-5q-4 0 -4 4t4 4q104 0 170 44t85 125q15 35 35 45q10 7 10 17q0 12 -10 17 q-25 13 -36 65q-2 6 -2 9q0 1 -0.5 2.5t-1.5 2.5v1q-12 43 -36.5 71.5t-57 41t-60.5 17.5t-62 5q-4 0 -4 4t4 4h2q189 0 229 -140v-2q1 -1 1 -2t0.5 -1.5t0.5 -1.5t1 -4t1 -5q11 -49 33 -60zM160 715q-4 0 -4 4t4 4h4q42 0 72 -28q2 -2 2 -3l-2 -3q-4 -2 -5 -3h-2q-2 0 -3 1 q-27 27 -66 28zM173 13l4 -3q2 -1 2 -3q1 -1 -1 -3q-30 -27 -71 -27h-4q-4 0 -4 4t4 4q39 1 65 27q1 1 5 1z" />
<glyph unicode="6" d="M641 220q8 -4 0 -7q-28 -15 -49 -68q-25 -73 -91 -109t-145 -36q-278 0 -303 286q-9 45 -38 60q-2 2 -2 4q0 3 2 3q30 16 38 61q25 286 303 286q114 0 153 -35q25 35 68 35q7 0 13.5 -1.5t11.5 -3.5t9 -4.5t6.5 -5.5t4.5 -5t3 -4l1 -1v-3q0 -2 -2 -2q-3 -1 -7.5 -3 t-14.5 -10.5t-18 -20t-14 -33t-6 -47.5q0 -56 -12 -71.5t-41 -15.5q-4 0 -4 4q0 66 -42 128.5t-108 60.5q-54 -1 -88 -61t-45 -166q57 21 132 21q54 0 101.5 -16t88 -55.5t53.5 -97.5q12 -51 42 -67zM347 38q93 0 93 190t-93 190q-49 0 -79 -32q-47 -50 -41 -158 q23 -190 120 -190zM355 57q0 4 -4 4q-73 4 -93 169q-6 97 35 140q20 22 58 24q4 0 4 4t-4 4h-5q-42 0 -67 -27q-42 -45 -37 -146q22 -176 104 -176q4 0 5 1q4 0 4 3zM248 458h-1h-1l-2 1q-1 1 -1 4q24 173 115 183q5 1 15 1h1q4 0 4 -4t-4 -4h-8q-84 -10 -108 -176 q0 -1 -3 -3q-2 0 -3 -1q-3 0 -4 -1zM517 446q-4 0 -4 4t3 4q33 1 48 21.5t15 80.5q0 74 49 99q8 1 12 11q3 9 -1 16q-15 30 -58 33q-4 0 -4 4t4 4h3q49 0 70 -37q5 -12 1 -23q-5 -11 -17 -16q-1 0 -5.5 -2t-11 -8.5t-12.5 -16t-10.5 -26.5t-4.5 -38q0 -65 -18.5 -87.5 t-58.5 -22.5zM360 715q-4 0 -4 4t4 4h3q97 0 147 -26q2 -2 2 -3q0 -3 -1 -4l-1 -1l-1 -1h-1q-1 -1 -3 -1h-2q-47 28 -143 28zM673 216q0 15 -14 24q-19 10 -29 44q-4 20 -7 29l-4 -1l4 2l-2 3q-28 83 -101 122.5t-157 39.5h-2q-4 0 -4 -4t4 -4q79 -1 149 -39.5t96 -117.5 q1 0 1 -3h1q1 -4 3.5 -13.5t3.5 -14.5q10 -37 32 -50q10 -5 10 -17t-10 -17q-23 -12 -39 -54q-1 -4 -3.5 -10.5t-3.5 -8.5l-3 -7l-3 -6q0 -1 -1 -1q-30 -59 -92.5 -93t-142.5 -35q-4 0 -4 -3q0 -4 4 -4h4q84 0 149 34.5t97 96.5q3 4 4 8l3 7l7 19q13 38 36 50q14 9 14 24z " />
<glyph unicode="7" horiz-adv-x="704" d="M653 675q1 -1 0 -3q0 -2 -3 -2l-4 -2q-4 -1 -11.5 -5t-16.5 -10t-20.5 -18.5t-22.5 -28.5q-32 -46 -80 -168q-20 -69 7 -85q2 -1 2 -4t-2 -3q-42 -19 -64 -83q-27 -106 -27 -173q0 -20 3.5 -35t7.5 -21l4 -5q2 -2 0 -4q0 -2 -4.5 -7t-16.5 -11.5t-28 -6.5q-42 0 -67 34 q-25 -34 -68 -34q-7 0 -13.5 1.5t-11.5 3.5t-9 4.5t-6.5 5.5t-4.5 5t-3 4l-1 1q-1 1 1 4q17 16 23.5 31t15.5 50q20 78 53 164q17 55 -6 72q-2 1 -2 4q0 1 2 3q39 16 74 73q55 108 113 179h-153q-38 0 -66.5 -13.5t-42.5 -31t-23 -39t-10.5 -32.5t-1.5 -16q0 -4 -4 -4 q-29 0 -41 15.5t-12 71.5q0 15 -2 28.5t-5.5 23.5t-8 19t-9.5 15t-9.5 11t-9.5 8t-8 5t-5 3l-3 1q-2 0 -2 2q-1 2 0 3q0 2 4.5 7t16.5 11.5t28 6.5q44 0 68 -35q39 35 153 35h62q95 0 140 -36q43 36 81 36q16 0 28 -6.5t16.5 -11.5t4.5 -7zM168 688q2 -2 3 -2q1 1 2 1 q2 2 4 2q2 2 2 3q1 2 -1 4q-32 27 -71 27h-4q-4 -1 -4 -4q0 -4 4 -4q37 -1 65 -27zM314 590h8q4 0 4 -4t-4 -4q-37 0 -63.5 -14t-37.5 -36t-15.5 -35.5t-5.5 -23.5v-2q0 -10 -8 -17.5t-19 -7.5h-5q-4 0 -4 4t3 4q16 0 18 18q0 5 1.5 14.5t9 29t20.5 35t38.5 27.5t59.5 12z M383 715q-4 0 -4 4t4 4h8q87 0 136 -30q2 0 2 -3q1 -1 -1 -3l-2 -1l-2 -2h-2h-2q-51 31 -137 31zM312 8l3 -2l1 -1q1 0 1 -3q0 -2 -1 -3q-29 -23 -66 -23q-3 0 -4 1h-1q-3 0 -3 3q0 4 3 4q35 1 62 24q1 2 2.5 2t2.5 -2zM681 686q6 -12 0 -25q-4 -12 -20 -15q-31 -10 -60 -54 q-31 -45 -76 -162q-17 -50 -3 -59q12 -8 12 -24q-2 -17 -16 -23q-20 -9 -33.5 -31t-17.5 -40v-1q-26 -99 -26 -163q0 -26 9 -44q14 -12 4 -32q-7 -13 -25 -25t-44 -12h-2l-2 1q-3 0 -3 3q0 4 3 4q40 2 59 33q7 13 -3 23q-11 11 -11 49q0 64 26 165v1q4 19 18.5 42.5 t36.5 33.5q11 5 11 16q2 12 -8 18q-19 12 0 68q44 115 77 164t65 57q10 1 15 10q5 10 -1 18q-15 30 -58 33q-4 0 -4 4q0 2 4 4h3q51 0 70 -37z" />
<glyph unicode="8" horiz-adv-x="647" d="M635 199q2 0 2 -3t-2 -3q-28 -15 -50 -66q-48 -127 -272 -127q-30 0 -50.5 1t-60 8t-66 20t-51 40.5t-32.5 66.5q-10 37 -47 57q-2 0 -2 3q0 2 2 3q23 16 40 33t22 26l6 10q28 50 97 97q-55 43 -74 91q-27 53 -52 67q-2 2 -2 3q0 2 2 4q37 20 55 66q48 104 225 104 q182 0 219 -105q18 -50 46 -65q6 -3 0 -7q-17 -13 -32.5 -30t-21.5 -28l-7 -11q-23 -35 -64 -66q95 -59 121 -127q21 -47 49 -62zM341 458q58 31 86.5 57t28.5 57q0 92 -123 92q-39 0 -63.5 -25.5t-24.5 -65.5q0 -59 96 -115zM437 136q0 47 -35.5 79.5t-112.5 76.5 q-67 -34 -100 -66.5t-33 -74.5q0 -54 47.5 -84.5t101.5 -30.5q53 0 92.5 26t39.5 74zM305 52h4q3 0 3 4t-3 4q-39 1 -80.5 23t-41.5 68q0 33 27 59.5t80 54.5q2 1 2 3q0 3 -1 4l-4 2h-4q-58 -31 -87 -59t-29 -64q0 -34 25.5 -58t54 -32.5t54.5 -8.5zM339 477q-79 49 -79 96 q0 34 20.5 54.5t52.5 20.5h6q4 0 4 -3q0 -4 -4 -4q-28 -1 -45.5 -19.5t-17.5 -48.5q0 -42 72 -87q1 -1 1 -3q0 -3 -2 -4l-4 -2h-2h-2zM654 220q14 -8 14 -24q0 -17 -14 -23q-23 -13 -39 -54q-53 -142 -294 -142h-8q-3 0 -3 4t3 4q235 0 287 137q19 45 43 57q10 7 10 17 q0 12 -10 17q-23 13 -43 55q-25 66 -104 119q-1 1 -1 3t1 3q29 26 45 52q1 1 1 2q31 50 56 63q10 5 10 17q0 10 -10 17q-23 12 -36 50l-3 7q-41 113 -229 115q-4 0 -4 3q0 4 4 4h3q197 0 241 -119q2 -5 3 -7q13 -35 32 -47q15 -7 15 -23t-15 -24q-23 -14 -52 -60l-2 -2 q-16 -26 -43 -50q78 -56 103 -120q19 -40 39 -51z" />
<glyph unicode="9" d="M661 354q7 -4 0 -7q-30 -17 -39 -69q-27 -278 -302 -278q-114 0 -152 35q-28 -35 -68 -35q-6 0 -12 1t-10.5 2.5t-8.5 4t-7 4.5t-5.5 4.5t-3.5 4t-2 3.5l-1 1v3l3 3q1 0 7 2.5t15 10.5t17.5 20t14.5 33t6 47q0 56 12 71.5t41 15.5q3 0 3 -4q2 -3 5.5 -26.5t11.5 -49 t22 -52t43 -44t69 -17.5q53 0 87.5 61t44.5 166q-57 -21 -132 -21q-77 0 -144 36t-92 111q-19 73 -48 89q-2 2 -2 4q0 3 2 3q29 15 47 64l10 26q19 40 51.5 67t69 38t61 14.5t45.5 3.5q275 0 302 -278q10 -53 39 -68zM330 283q48 0 78 31q47 50 41 158q-23 190 -119 190 q-94 0 -94 -190q0 -189 94 -189zM319 225q0 -4 3 -4h6q52 0 102 11l3 3v2q0 3 -1 3q-2 2 -4 1q-47 -12 -106 -12q-3 0 -3 -4zM309 61q4 0 4 -4t-4 -4h-3q-17 0 -32.5 6t-26.5 16t-20.5 23t-15.5 27.5t-11 28.5t-8 27.5t-4.5 23.5t-2.5 17l-1 6q0 16 -17 18q-4 0 -4 4 q0 3 4 3q2 1 6 1q11 0 18.5 -7.5t8.5 -18.5q0 -3 2 -17.5t9 -40.5t18 -49t32 -41t48 -19zM680 374q14 -9 14 -24t-14 -24q-21 -10 -27 -51q-30 -298 -325 -298h-5q-4 0 -4 4t4 4q285 2 314 291q7 44 31 57q11 5 11 17t-11 17q-23 12 -31 57q-29 289 -312 291q-4 0 -4 4t4 4 h3q295 0 325 -298q6 -40 27 -51zM177 10q2 -2 2 -3q0 -3 -1 -3q-30 -27 -71 -27h-4h-1q-3 0 -3 4t3 4q38 1 66 27q2 2 4 0q1 0 5 -2zM333 298h-4q-16 0 -28 6t-24 23t-19 53.5t-7 91.5t7 91.5t19 53.5t24 23t28 6h3q4 0 4 -4q0 -3 -4 -4q-65 -2 -65 -166t66 -166q3 -2 3 -4 q0 -4 -3 -4z" />
<glyph unicode="A" horiz-adv-x="615" d="M266 519l-68 -239h136zM602 30q4 0 2 -5q-1 -3 -5 -8t-16 -11t-28 -6q-43 0 -68 34q-28 -34 -68 -34q-37 0 -50 25q-2 5 3 5q9 3 15 13q11 17 0 53q-1 4 -12 41.5t-15 52.5h-188q-3 -12 -13 -45.5t-14 -48.5q-13 -44 -2 -60l8 -5q4 0 4 -6l-1 -2q-2 -2 -4 -5t-5.5 -6 t-8 -5.5t-10.5 -4.5t-13 -2q-24 0 -31 18q-14 -18 -36 -18q-20 0 -29 10q-7 7 -7 17q0 4 4 4q1 0 2.5 0.5t7 4t10 10t10.5 20.5t11 32l51 180q14 52 -13 71h-1q-2 0 -2 3q0 2 2 4q40 18 58 74q49 169 51 174q10 34 -1 53q-6 12 -15 12q-2 0 -3 2.5t1 3.5q0 2 4.5 7 t16.5 11.5t28 6.5q40 0 75 -35q35 35 75 35q16 0 28 -6.5t16.5 -11.5t4.5 -7q1 -1 0 -3.5t-2 -2.5q-9 0 -16 -12q-11 -18 0 -53l50 -174q16 -55 57 -73q2 0 2 -3q0 -2 -2 -4q-2 0 -7 -5.5t-9.5 -20.5t1.5 -41l53 -185q8 -26 19 -43t18 -21zM314 697q-35 26 -74 26h-5 q-3 0 -3 -4t3 -4q38 -1 70 -27l2 -1q2 0 3 1l3 2l1 1q1 1 1 3t-1 3zM270 450l4 -14v-2l-39 -136q0 -3 -3 -3h-8q-3 0 -3 2q-1 1 -1 3l43 150q0 2 3 2q4 0 4 -2zM83 -6l2 -2h1q2 -2 2 -4q0 -1 -2 -3q-16 -8 -32 -8h-5q-3 0 -3 4t3 4q17 0 30 9q2 2 4 0zM635 39q5 -12 -2 -25 q-21 -37 -70 -37h-4q-3 0 -3 4t3 4q22 1 37.5 11.5t21.5 21.5q6 8 2 17t-13 10q0 1 -1 1q-20 15 -33 56l-50 175v3q-12 44 4 56q0 1 1 1q11 3 11 16q1 11 -12 18q-33 17 -49 63l-49 174q-12 37 3 46h2q9 2 13 10q4 7 -1 18q-18 31 -59 33q-4 0 -4 4t4 4h3q26 0 44.5 -12 t25.5 -25q8 -15 2 -26q-8 -13 -19 -14q-7 -7 1 -36l50 -174q13 -43 44 -58q17 -8 17 -25q-2 -18 -16 -23q-11 -11 -1 -48q0 -2 1 -3q27 -96 50 -174q13 -44 28 -52q13 -3 18 -14zM187 174h7q3 0 3 -1q1 -1 1 -4l-23 -79q-6 -22 -6 -38q8 -3 13 -11q9 -14 1 -26 q-7 -14 -23 -26t-38 -12h-3q-4 0 -4 4t4 4q33 2 50 33q4 8 -1 19q-5 7 -11 8l-3 3q-3 15 6 44q2 8 7 25t9 30.5t7 23.5q0 3 4 3zM490 9l3 -3q2 0 2 -3q0 -1 -1 -3q-31 -23 -67 -23h-4q-4 0 -4 4t4 4q37 1 62 24q2 2 5 0z" />
<glyph unicode="B" horiz-adv-x="654" d="M604 184q0 46 -14 81t-36.5 53.5t-40 27.5t-34.5 13q19 9 36 22.5t35.5 46.5t18.5 75q0 58 -22 99t-60.5 61t-78.5 28.5t-87 8.5q-115 0 -154 -35q-22 35 -67 35q-16 0 -28 -6.5t-16.5 -11.5t-4.5 -7q-2 -1 -1 -3t3 -2q3 -1 7.5 -4.5t12.5 -20.5t8 -41v-168 q0 -69 -34 -87q-2 -1 -2 -4q0 -2 2 -3q34 -19 34 -87v-158q0 -50 -27 -67h-1q-3 -2 -2 -5t5 -8t16 -11t28 -6q44 0 68 35q43 -35 153 -35q25 0 40.5 0.5t48.5 4t55.5 10t51 20t45.5 32.5t29.5 49t12.5 68zM363 284q28 0 48 -25.5t20 -78.5q0 -75 -26 -108.5t-84 -33.5 q-30 0 -49 18t-19 47v152q0 76 34 95q2 0 2 3t-2 3q-34 19 -34 80v169q0 27 17.5 42t48.5 15q41 0 63.5 -38.5t22.5 -110.5q0 -39 -14.5 -60t-35.5 -21q-20 0 -34 19q-2 2 -5 1l-2 -1l-2.5 -2.5t-3.5 -4t-4 -5.5t-4 -7t-3 -9.5t-1 -11.5q0 -33 27 -54q-27 -18 -27 -54 q0 -6 1 -11t3 -9t4 -7t4 -5.5t3.5 -4l2.5 -2.5l2 -1q3 -1 5 1q14 20 42 20zM276 391q2 -3 3 -3l2 1q4 0 2 4q-2 12 -2 18q0 11 3 21l1 1l-1 172q0 31 39 33q3 0 3 4t-4 4h-2q-51 0 -51 -41v-169q0 -30 7 -45zM360 455q3 0 3 -3q0 -4 -3 -4l-5 -1q-11 0 -21 12q-5 7 -12 7 q-3 2 -3 4q0 4 3 4l4 1q13 0 22 -11q4 -7 12 -9zM331 58q0 -4 -4 -4h-6q-23 0 -37.5 13t-14.5 35v152q0 30 5 48q0 3 4 3q3 0 3 -4q2 -14 4 -21v-2q-1 -10 -1 -24v-152q0 -18 11.5 -29t31.5 -12q4 0 4 -3zM334 255q13 16 34 13q3 0 3 -3q0 -4 -3 -4q-13 -2 -20 -10 q-8 -11 -22 -11h-3q-4 0 -4 4q0 2 3 4q8 2 12 7zM538 364q97 -51 97 -180q0 -207 -307 -207q-3 0 -3 4t3 4q292 0 292 199q0 126 -98 175l-3 3q0 2 2 4q64 51 64 136q0 102 -67 157t-193 56q-4 0 -4 4t4 4h4q131 0 201.5 -57t70.5 -164q0 -85 -63 -138zM103 715q-3 0 -3 4 t3 4h5q41 0 71 -27q1 -1 1 -3q0 -3 -2 -3l-5 -3h-1q-2 0 -3 1q-28 26 -66 27zM174 13l5 -2q2 -2 2 -3q0 -3 -1 -3q-30 -28 -72 -28h-4q-4 0 -4 4t3 4q40 1 67 28q2 2 4 0z" />
<glyph unicode="C" d="M625 675q2 -4 -2 -5q-60 -30 -60 -114q0 -55 -12 -70.5t-40 -15.5q-4 0 -4 3q0 5 -2 21t-10.5 46t-22 56t-40.5 46t-61 20h-13q-55 -7 -89 -66t-44 -163q-1 -26 5.5 -46t13 -27t8.5 -7q2 -1 2 -3q0 -3 -2 -3q-3 -2 -8.5 -7t-13 -26t-6.5 -49q8 -97 37.5 -145t85.5 -56 q9 -1 25 -1q67 0 103.5 42.5t42.5 89.5q0 3 4 3q27 0 40 -16t7 -41q-4 -21 -15 -41t-33.5 -45t-66.5 -40t-104 -15q-77 0 -134 25t-89 68t-48.5 85.5t-23.5 92.5q-12 62 -40 76q-2 0 -2 3t2 4q29 15 39 77q33 269 302 269q114 0 153 -35q21 35 67 35q7 0 13.5 -1.5 t11.5 -3.5t9 -4.5t6.5 -5.5t4.5 -5t3 -4zM356 719q0 -4 4 -4q98 0 143 -28h2q2 0 3 1l2 2h1q1 1 1 4q0 1 -2 3q-50 26 -146 26h-4q-4 0 -4 -4zM377 78h-2h-2q-8 0 -24 2q-95 12 -108 182q-4 54 19 71q9 5 11 16q0 11 -10 17q-3 2 -7.5 7t-10 25.5t-1.5 47.5q26 191 117 201 h15h2q5 0 3 -4q0 -4 -3 -4h-1h-7q-87 -9 -111 -194q-6 -50 17 -73q14 -9 12 -23q-2 -16 -14 -22q-20 -20 -16 -64q5 -57 17.5 -95.5t31 -54t29 -20t24.5 -6.5q3 0 9 -0.5t10 -0.5q3 0 3 -4t-3 -4zM530 222q37 0 58 -25q19 -24 12 -61q-4 -18 -11 -35.5t-24.5 -41 t-42.5 -40.5t-68 -29.5t-96 -12.5h-4q-4 0 -4 4t4 4q63 0 109.5 17t70.5 43.5t35 48.5t16 44q6 31 -10 54q-16 19 -47 22q-4 0 -4 4t4 4h2zM654 686q6 -10 1 -23q-5 -12 -17 -15q-44 -22 -44 -92q0 -65 -18.5 -87.5t-57.5 -22.5h-1q-4 2 -4 4q0 4 3 4q33 2 48 22.5t15 79.5 q0 74 49 99q9 3 12 11q3 10 -1 17q-17 31 -58 32q-4 0 -4 4t4 4h1h2q49 0 70 -37z" />
<glyph unicode="D" d="M663 350q0 3 -2 4q-29 16 -38 67q-30 279 -303 279q-114 0 -153 -35q-7 12 -24 23.5t-43 11.5q-16 0 -28 -6.5t-16.5 -11.5t-4.5 -7q-1 -1 -0.5 -3t1.5 -2q3 0 9 -5t13 -21t7 -40v-164q0 -69 -35 -87q-2 -2 -2 -4q0 -1 2 -3q35 -19 35 -87v-162q0 -53 -29 -67 q-1 0 -1.5 -2t0.5 -3q0 -2 4.5 -7t16.5 -11.5t28 -6.5q46 0 67 35q39 -35 153 -35q271 0 302 270q3 22 5 32.5t10.5 23.5t23.5 21q2 0 2 3zM422 347l2 -1l2.5 -2.5l4 -4t5 -5.5t5 -7.5t4.5 -10t4 -12t2.5 -15t0.5 -17.5q-9 -111 -43.5 -172.5t-89.5 -61.5q-31 0 -48.5 15.5 t-17.5 41.5v164q0 68 35 87q2 2 2 3q0 2 -2 4q-35 18 -35 87v165q0 27 17.5 42t48.5 15q54 0 88.5 -60.5t44.5 -171.5q2 -53 -30 -77q-2 0 -2 -3t2 -3zM319 54h3q3 0 3 4q0 3 -3 3q-38 3 -38 34v164q0 55 22 67q14 8 14 24t-14 24q-22 12 -22 66v165q0 31 38 33q4 0 4 4 q-2 4 -4 4h-3q-51 0 -51 -41v-165q0 -59 27 -73q10 -7 10 -17q0 -12 -10 -17q-27 -14 -27 -74v-164q0 -41 51 -41zM103 715q-4 0 -4 4t4 4h4q41 0 71 -27q1 -1 1 -3q0 -3 -2 -3l-4 -3h-2q-2 0 -3 1q-26 26 -65 27zM678 374q14 -8 14 -25q0 -16 -16 -24q-4 -2 -7.5 -4.5 t-6 -6.5t-4 -6t-3.5 -9t-2.5 -9t-2 -11t-2.5 -12l-2 -12q-36 -278 -315 -278h-6q-4 0 -4 4t4 4q137 0 215.5 72.5t92.5 210.5q6 50 32 64q10 6 12 17q0 12 -11 18q-22 12 -32 67q0 2 -0.5 5t-0.5 4q-38 270 -311 272q-4 0 -4 4t4 4h6q282 -2 320 -278q0 -2 2 -10 q8 -50 28 -61zM173 13l4 -3q2 -1 2 -3q1 -1 -1 -3q-30 -27 -71 -27h-4q-4 0 -4 4t4 4q39 1 65 27q1 1 5 1z" />
<glyph unicode="E" horiz-adv-x="672" d="M620 29q1 -1 1 -4q0 -2 -4.5 -7.5t-16 -11.5t-27.5 -6q-43 0 -68 37q-37 -37 -153 -37h-32q-117 0 -154 37q-25 -37 -68 -37q-7 0 -13.5 1.5t-11 3.5t-8.5 4.5t-6.5 5.5t-4.5 5t-3 4l-1 1q-2 4 1 4q2 0 8.5 5t14 21.5t7.5 40.5v164q0 69 -35 88q-2 0 -2 3t2 3 q35 19 35 88v163q0 25 -7.5 41.5t-14 21.5t-8.5 5l-1 3l1 2l3 3t4.5 5t6.5 5.5t8.5 4.5t11 3.5t13.5 1.5q44 0 68 -36q40 36 154 36h32q112 0 153 -36q24 36 68 36q16 0 28 -6.5t16 -11.5t4 -7q1 -3 -1 -3q-1 0 -6.5 -2.5t-15 -11t-18 -20.5t-15 -33.5t-6.5 -47.5 q0 -56 -12 -71t-40 -15q-2 0 -2 2l-1 7q-1 7 -3 18t-5.5 25.5t-9 30t-13.5 31.5t-19.5 30t-25.5 25t-33.5 17.5t-41.5 6.5h-35q-31 0 -49 -15.5t-18 -42.5v-165q0 -57 28 -82q3 24 17.5 31t43.5 9q20 2 30.5 4t26 11t23.5 25q2 1 3 1l1 -1q1 -1 2.5 -2t3 -2.5l3.5 -3.5 t3.5 -5t2.5 -6.5t2 -8t1 -9.5q0 -35 -27 -52q27 -20 27 -53q0 -20 -13 -33q-4 -4 -7 -4q-2 0 -2 1q-18 35 -80 39q-19 2 -29 4t-20 11.5t-12 25.5q-28 -25 -28 -82v-165q0 -28 17.5 -43.5t49.5 -15.5h35q22 0 41.5 6.5t33.5 17.5t25.5 25t19.5 30t13.5 31.5t9 30t5.5 25.5 t3 18l1 7q0 2 2 2q28 0 40 -14.5t12 -70.5q0 -27 6.5 -48.5t15 -33.5t18 -20t15 -10.5t6.5 -2.5zM179 697q-32 27 -71 27h-5q-4 0 -4 -4t4 -4q38 -1 66 -27q0 -1 2 -1h2l5 3q2 0 2 3q0 2 -1 3zM327 62q4 0 4 -4t-4 -4h-8q-50 0 -50 41v165q0 30 5 46l3 3q2 0 4 -2l6 -8v-3 q-3 -13 -3 -36v-165q0 -33 43 -33zM319 647h8q4 0 4 -4t-4 -4q-43 0 -43 -33v-165q0 -24 4 -38q0 -2 -2 -4l-6 -5h-4q-2 0 -2 2q-5 16 -5 45v165q0 41 50 41zM514 447q-4 0 -4 4t3 4q33 1 48 21.5t15 80.5q0 75 49 99q9 1 12 11q3 9 -1 16q-15 30 -58 33q-4 0 -4 4t4 4h3 q49 0 70 -37q6 -11 1 -23q-4 -11 -17 -16q-1 0 -5.5 -2t-11 -8.5t-12.5 -16t-10.5 -26.5t-4.5 -38q0 -65 -18.5 -87.5t-58.5 -22.5zM507 697q2 0 2 -3q0 -2 -1 -3l-1 -1q-1 0 -1 -0.5t-1 -0.5q-1 -1 -3 -1h-2q-47 28 -147 28q-4 0 -4 4t4 4h8q94 0 146 -27zM635 53 q12 -3 17 -16q5 -12 -1 -23q-23 -37 -70 -37q-1 0 -1 0.5t-1 0.5h-1q-4 0 -4 3q0 4 4 4q41 3 58 33q4 7 1 16t-12 12q-5 2 -13.5 7t-22 30t-13.5 61q0 60 -15 80.5t-48 21.5q-3 2 -3 4q0 4 3 4h2q39 0 57.5 -22.5t18.5 -87.5q0 -34 11 -56.5t22 -28.5zM505 13l3 -3 q1 -1 1 -3q0 -3 -2 -3q-52 -27 -146 -27h-8q-4 0 -4 4t4 4q100 0 147 28q3 2 5 0zM173 13l5 -2q2 -2 2 -3q0 -3 -1 -4q-32 -27 -71 -27l-4 1h-1q-3 0 -3 4q0 3 3 3q37 1 66 28q2 2 4 0zM443 462q32 -21 32 -59q0 -29 -17 -52q17 -25 17 -52q0 -30 -21 -51q-12 -12 -24 -12 h-3q-3 1 -4 4q0 4 3 4q8 2 15 9q18 18 18 46t-17 49q-2 3 0 5q17 21 17 50q0 34 -27 52q-4 2 -7 2t-3 4q0 3 3 4q10 2 18 -3z" />
<glyph unicode="F" horiz-adv-x="673" d="M622 675q1 -3 -1 -3q-1 0 -6.5 -2.5t-15 -11t-18 -20.5t-15 -33.5t-6.5 -47.5q0 -56 -12 -71t-40 -15q-2 0 -2 2l-1 7q-1 7 -3 18t-5.5 25.5t-9 30t-13.5 31.5t-19.5 30t-25.5 25t-33.5 17.5t-41.5 6.5h-35q-32 0 -50 -15.5t-18 -42.5v-165q0 -57 28 -81q3 24 17.5 31 t43.5 9q20 2 30.5 4t26 11t23.5 25q2 1 3 1l1 -1q1 -1 2.5 -2t3 -2.5l3.5 -3.5t3.5 -5t2.5 -6.5t2 -8t1 -9.5q0 -35 -27 -52q27 -20 27 -53q0 -20 -13 -33q-4 -4 -7 -4q-2 0 -2 1q-18 35 -80 39q-15 2 -22 3t-17.5 5t-15.5 11.5t-6 20.5q-28 -23 -28 -81v-165q0 -24 7.5 -41 t14.5 -22l7 -5q2 -1 2 -3v-1l-2.5 -2.5t-3 -3.5t-4 -3.5t-5 -3.5t-6.5 -4t-8 -3t-9 -2t-11 -1q-46 0 -67 35q-24 -35 -68 -35q-6 0 -11.5 1t-10 2.5t-8.5 3.5t-6.5 4.5t-5 4.5t-3.5 3.5t-2 2.5l-1 2q-1 2 1 3q3 1 8 5t13 21.5t8 41.5l1 190q-6 45 -35 62q-2 2 -2 3q0 2 2 4 q35 18 35 87v163q0 24 -7.5 41t-14.5 22l-7 5q-1 0 -1.5 1t0.5 2q0 2 4 7t16 11.5t28 6.5q44 0 68 -36q41 36 154 36h32q113 0 153 -36q24 36 68 36q16 0 28 -6.5t16 -11.5t4 -7zM475 402q0 18 -8 33t-14.5 20t-9.5 6q-8 5 -18 3q-3 0 -3 -4q0 -3 3 -3q1 0 3.5 -0.5 t3.5 -1.5q27 -18 27 -53q0 -28 -17 -49q-2 -3 0 -5q17 -21 17 -50q0 -28 -18 -45q-7 -7 -15 -9q-3 -2 -3 -4q0 -4 4 -4h2h1q12 0 24 11q21 21 21 51q0 29 -17 52q17 23 17 52zM169 9l3 -2q2 -2 2 -4t-1 -3q-29 -23 -66 -23h-4h-1q-3 0 -3 4t3 4q35 1 62 24q3 2 5 0zM103 723 h5q41 0 71 -27q1 0 1 -3q0 -1 -2 -3l-5 -2q0 -1 -2 -1t-2 1q-29 27 -66 27q-4 0 -4 4t4 4zM507 697q2 -2 2 -3q0 -3 -1 -3l-1 -1l-2 -2q-1 -1 -3 -1l-2 1q-51 28 -147 28q-4 0 -4 3q0 4 4 4h7q97 0 147 -26zM651 687q5 -13 1 -24q-5 -12 -17 -15q-44 -22 -44 -92 q0 -65 -18.5 -87.5t-57.5 -22.5l-1 1q-4 0 -4 4q0 3 3 3q33 2 48 22.5t15 79.5q0 74 49 99q9 3 12 11q3 10 -1 17q-17 31 -58 32q-4 2 -4 4q0 4 4 4h1h2q48 0 70 -36zM319 647h8q4 0 4 -4t-4 -4q-43 0 -43 -34v-165q0 -22 3 -35q0 -3 -1 -4l-7 -5l-2 -1h-1q-3 0 -3 2 q-4 16 -4 43v165q0 42 50 42zM299 52q11 -4 15 -15q4 -12 -3 -23q-7 -13 -25 -25t-44 -12h-2h-2q-3 0 -3 4t3 4q44 3 59 33q4 9 2 16q-3 8 -12 11q-18 13 -18 52v162q0 29 5 44q0 3 2 3q3 0 4 -1l6 -7q1 -1 1 -4q-3 -13 -3 -35v-162q0 -35 15 -45z" />
<glyph unicode="G" horiz-adv-x="675" d="M623 29q2 0 2.5 -1.5t-0.5 -3.5q0 -1 -4.5 -6.5t-16.5 -11.5t-28 -6q-45 0 -69 34q-47 -34 -152 -34h-6q-60 0 -108.5 16.5t-79.5 42t-53 61.5t-33.5 69.5t-17.5 71.5q-12 71 -43 85q-2 2 -2 4q0 3 2 3q9 5 16 12.5t11 14t7 17.5t4 16t2 16l2 11q34 260 299 260 q113 0 152 -35q28 35 69 35q7 0 13.5 -1.5t11.5 -3.5t9 -4.5t6.5 -5.5t4.5 -5t3 -4l1 -1q1 -1 0 -2.5t-2 -2.5q-3 -1 -7.5 -3t-14.5 -10.5t-18 -20t-14 -33t-6 -47.5q0 -56 -12.5 -71.5t-41.5 -15.5q-3 0 -4 3q0 5 -2 21t-10.5 46.5t-22 56.5t-39.5 46t-60 20h-14 q-55 -6 -89 -66t-43 -164q-1 -26 5.5 -45.5t13 -26.5t8.5 -7q1 -1 1 -3l-2 -3l-1 -1q-2 -2 -4 -3.5t-4.5 -5l-5 -7t-5 -9.5t-4.5 -12.5t-3 -15.5t-1 -19q8 -107 38 -158.5t85 -51.5q76 0 76 143v10q0 24 -7 40.5t-14 20.5l-7 5q-2 0 -3 1.5t1 3.5l1 2l3 3t4.5 5t6.5 5.5 t9 4.5t11.5 3.5t13.5 1.5q42 0 67 -34q25 34 68 34q7 0 13.5 -1.5t11.5 -3.5t9 -4.5t6.5 -5.5t4.5 -5l3 -3l1 -2q0 -4 -2 -5l-1 -1q-1 0 -3 -1.5t-4 -3.5t-4 -4.5t-4.5 -6.5t-4.5 -9t-3.5 -10.5t-2.5 -13t-1 -16.5v-122q0 -24 7 -40.5t13 -21t8 -4.5zM353 83q0 4 -4 4 q-15 1 -27.5 7.5t-26.5 23t-24 53.5t-15 91q-3 45 16 64q14 8 14 22q2 14 -12 24q-3 2 -6.5 6.5t-8 23.5t-1.5 43q24 184 110 193q2 1 7 1h1q4 0 4 4q0 2 -4 4h-1q-10 0 -15 -1q-92 -10 -118 -200q-3 -27 2 -47t10.5 -26.5t7.5 -6.5q9 -6 9 -17q-2 -12 -10 -16 q-24 -18 -20 -71q5 -58 16 -97t27.5 -56.5t31 -23.5t31.5 -6q1 0 1 1h1q4 0 4 3zM638 647q-3 0 -12 -6t-20.5 -29t-11.5 -56q0 -65 -18 -87.5t-59 -22.5q-4 0 -4 4t4 4q33 1 47.5 22t14.5 80q0 74 49 99q9 1 12 11q4 7 -1 16q-15 30 -58 33q-4 0 -4 4t4 4h1h2q49 0 70 -37 q6 -11 1 -23q-4 -11 -17 -16zM445 336h5q35 0 66 -23q1 -2 1 -3l-1 -1v-2q-2 -1 -4 -3h-1q-1 -1 -2 -1l-2 1q-25 23 -62 24q-4 0 -4 4t4 4zM641 50q10 -3 15 -15q4 -10 -2 -23q-22 -36 -70 -36h-2h-1q-3 0 -4 4q0 3 4 3q41 3 58 33q6 8 2 16q-3 8 -10 11h-1q-19 11 -19 52 v122q0 43 19 51q0 1 1 1q7 3 10 11q4 7 -2 16q-17 31 -58 32q-4 0 -4 4t4 4h1h2q49 0 70 -37q6 -12 2 -22q-4 -12 -15 -15q-14 -14 -14 -45v-122q0 -31 14 -45zM509 10l1 -1q1 -1 1 -3q0 -3 -2 -3q-51 -27 -145 -27h-5q-4 0 -4 4t4 4q94 0 144 28q2 2 4 -1zM360 715 q-3 0 -3 4t3 4h4q94 0 146 -27q2 0 2 -3q0 -2 -1 -3l-1 -1l-1 -1h-1q-1 -1 -2 -1h-2q-45 27 -144 28z" />
<glyph unicode="H" horiz-adv-x="711" d="M665 352q2 0 2 -3t-2 -3q-35 -19 -35 -88v-162q0 -24 7 -40.5t13 -21t8 -4.5q3 -2 2 -6q-12 -24 -49 -24q-42 0 -68 33q-23 -33 -67 -33q-6 0 -12 1t-10.5 2.5t-8.5 3.5t-6.5 4.5t-5 4.5t-3.5 3.5t-2 2.5l-1 2q-3 3 2 6h1q1 1 3 2.5l4 3t4 4.5t4.5 6.5t4.5 8.5t3.5 11 t2.5 13.5t1 16.5v212h-203v-212q0 -24 7 -40.5t14 -21.5l7 -4q2 -1 2 -6v-1l-2.5 -2.5t-3 -3.5t-4 -3.5t-5 -3.5t-6.5 -4t-8 -3t-9 -2t-11 -1q-42 0 -68 33q-26 -33 -67 -33q-16 0 -28 6t-16.5 11.5t-4.5 6.5l2 6q2 0 8 4.5t13 21t7 40.5v162q0 69 -35 88q-2 0 -2 3t2 3 q35 19 35 86v165q0 24 -7 40.5t-13 21t-8 4.5l-2 6q0 2 4.5 7t16.5 11.5t28 6.5q40 0 67 -34q27 34 68 34q16 0 28 -6.5t16.5 -11.5t4.5 -7q1 -3 -2 -6l-1 -1q-1 0 -3 -1.5l-4 -3t-4 -4.5t-4.5 -6.5t-4.5 -8.5t-3.5 -11t-2.5 -13.5t-1 -16.5v-213h203v213q0 24 -7 40.5 t-13 21t-8 4.5t-3 2.5t1 3.5q0 2 4.5 7t16.5 11.5t28 6.5q43 0 67 -34q27 34 68 34q7 0 13.5 -1.5t11.5 -3.5t9 -4.5t6.5 -5.5t4.5 -5t3 -4l1 -1q3 -3 -2 -6q-2 0 -8 -4.5t-13 -21t-7 -40.5v-163q0 -69 35 -88zM312 686q-21 37 -70 37h-2h-1q-4 0 -4 -4t4 -4q43 -3 58 -33 q6 -8 2 -16q-3 -9 -10 -10l-1 -1q-19 -11 -19 -52v-194q0 -4 4 -4h8q4 0 4 4v194q0 38 14 45q11 4 15 15q4 10 -2 23zM108 723q35 0 66 -23v-1q1 -1 1 -2t-1 -3q-2 -1 -4 -3q-1 -1 -3 -1q-1 0 -2 1q-27 23 -62 24q-4 0 -4 4t4 4h5zM484 723q37 0 66 -23q1 -1 1 -3t-1 -3h-1 l-3 -3l-2 -1q-2 0 -3 1q-27 23 -62 24q-3 0 -3 4t3 4h5zM676 51q10 -3 15 -15q4 -12 -3 -23q-7 -13 -25 -24.5t-44 -11.5h-2h-2q-3 0 -3 4q0 3 3 3q40 2 59 33q4 9 2 16q-4 8 -11 11h-1q-18 13 -18 52v162q0 60 26 74q10 5 10 17t-10 17q-26 14 -26 74v163q0 39 18 52 q1 0 1 1q6 1 11 10q2 7 -2 16q-18 31 -59 33q-3 0 -3 4t3 4h2h2q26 0 44 -12t25 -25q7 -11 3 -23q-5 -11 -15 -15q-15 -5 -15 -45v-163q0 -55 22 -67q15 -8 15 -24t-15 -24q-22 -12 -22 -67v-162q0 -35 15 -45zM549 6l1 -1q1 0 1 -3q0 -2 -1 -3q-28 -22 -66 -22h-4h-1 q-3 0 -3 4q0 3 3 3q36 1 62 25q3 2 5 0zM299 51q11 -3 15 -15q4 -10 -2 -23q-22 -36 -70 -36h-2h-1q-4 0 -4 4q0 3 4 3q41 3 58 33q6 8 2 16q-3 8 -10 11h-1q-19 11 -19 52v193q0 4 4 4h8q4 0 4 -4v-193q0 -31 14 -45zM170 9l3 -3q2 -2 2 -3t-1 -4q-29 -22 -66 -22h-4h-1 q-4 0 -4 4q0 3 4 3q36 1 62 25q2 2 5 0z" />
<glyph unicode="I" horiz-adv-x="335" d="M289 346q-30 -16 -35 -68v-182q0 -24 7 -40.5t13 -21t8 -4.5q3 -2 2 -6q-12 -24 -49 -24q-42 0 -68 33q-23 -33 -67 -33q-6 0 -12 1t-10.5 2.5t-8.5 3.5t-6.5 4.5t-5 4.5t-3.5 3.5t-2 2.5l-1 2q-3 3 2 6h1q1 1 3 2.5l4 3t4 4.5t4.5 6.5t4.5 8.5t3.5 11t2.5 13.5t1 16.5 v178q-2 55 -34 72q-2 1 -2 4q0 2 2 3q32 17 34 73v177q0 24 -7 40.5t-13 21t-8 4.5t-3 2.5t1 3.5q0 2 4.5 7t16.5 11.5t28 6.5q43 0 67 -34q27 34 68 34q7 0 13.5 -1.5t11.5 -3.5t9 -4.5t6.5 -5.5t4.5 -5t3 -4l1 -1q3 -3 -2 -6q-2 0 -8 -4.5t-13 -21t-7 -40.5v-182 q5 -52 35 -68q2 -2 2 -3q0 -2 -2 -4zM174 5l-1 1q-1 0 -3 2t-5 0q-27 -23 -62 -24q-3 0 -3 -4t3 -4h1h4q37 0 66 23q1 1 1 3t-1 3zM108 722q38 0 66 -22q1 -1 1 -3q0 -3 -1 -3l-1 -1q-2 -2 -3 -2l-2 -1q-2 0 -3 1q-27 23 -62 24q-3 0 -3 3q0 4 3 4h5zM300 51q10 -5 15 -15 q4 -12 -3 -23q-7 -13 -25 -25t-44 -12h-2h-2q-3 0 -3 4t3 4q41 2 59 33q4 9 2 16q-5 9 -11 10l-1 1q-18 14 -18 52v162q0 59 26 74q10 5 10 17q0 10 -10 17q-26 14 -26 73v164q0 39 18 52h1q7 3 11 11q2 7 -2 16q-19 31 -59 33q-3 0 -3 3q0 4 3 4h2h2q26 0 44 -11.5 t25 -24.5q7 -11 3 -23q-5 -12 -15 -15q-15 -10 -15 -45v-164q0 -55 22 -67q15 -7 15 -23t-15 -24q-22 -12 -22 -67v-162q0 -40 15 -45z" />
<glyph unicode="J" horiz-adv-x="374" d="M327 352q3 0 3 -3t-3 -3q-34 -19 -34 -88v-164q0 -71 -56 -128.5t-141 -57.5q-17 0 -26 1q-16 2 -20 14q-5 17 17 34q36 26 44.5 53t8.5 78v170q0 69 -35 88q-2 0 -2 3t2 3q35 19 35 87v164q0 50 -28 67h-1l-1 5q0 2 4.5 7t16.5 11.5t28 6.5q45 0 67 -34q25 34 68 34 q16 0 28 -6.5t16.5 -11.5t4.5 -7q2 -3 -1 -5q-29 -14 -29 -67v-164q0 -68 34 -87zM139 719q0 -4 3 -4q36 0 62 -24l1 -1h2q1 1 2 1l3 3h1q1 1 1 3q0 3 -1 3q-27 23 -66 23h-5q-3 0 -3 -4zM346 372q15 -8 15 -24t-15 -23q-22 -12 -22 -67v-164q0 -80 -62.5 -144t-157.5 -64 h-2h-1q-4 0 -4 3q0 4 4 4q89 1 148.5 63.5t59.5 137.5v164q0 59 26 73q10 7 10 17q0 12 -10 17q-26 15 -26 74v165q0 38 18 52h1q7 3 11 11q2 7 -2 16q-20 31 -59 32q-3 0 -3 4t3 4h2h2q26 0 44 -12t25 -25q7 -9 3 -22q-4 -12 -15 -15q-15 -10 -15 -45v-165q0 -55 22 -67z " />
<glyph unicode="K" horiz-adv-x="712" d="M659 38q1 0 3 -2v-3q-16 -33 -65 -33q-46 0 -74 34q-19 -34 -60 -34q-33 0 -57 24q-1 1 -1 3q0 1 2 3q6 0 10 14q6 18 -15 51q-17 26 -69 107l-32 51l-48 -76v-81q0 -24 7 -40.5t13 -21t8 -4.5t2 -2q1 -1 1 -2t-1 -1q0 -2 -4.5 -7t-16.5 -11.5t-28 -6.5q-42 0 -67 34 q-25 -34 -67 -34q-6 0 -12 1t-10.5 2.5t-8.5 4t-7 4.5t-5.5 4.5t-3.5 4t-2 3.5l-1 1v3q0 2 2 2t8 4.5t13 21t7 40.5v163q0 68 -34 87q-2 0 -2 3t2 4q34 18 34 87v163q0 50 -27 67h-1q-2 0 -2 2v3l1 1q1 2 2 3.5t3.5 4t5.5 4.5t7 4.5t8.5 4t10.5 2.5t12 1q42 0 67 -34 q25 34 67 34q16 0 28 -6.5t16.5 -11.5t4.5 -7q1 -1 0 -3q0 -2 -2 -2h-1q-1 -1 -3 -2.5t-4 -3.5t-4 -4.5t-4.5 -6.5t-4.5 -9t-3.5 -11t-2.5 -13.5t-1 -16.5v-274q175 273 186 291q15 26 11 44q-1 4 -3.5 7.5t-4.5 4.5l-2 2q-2 0 -2 2v3q0 1 3 5t11.5 8t18.5 4q24 0 42 -21 q18 21 44 21q11 0 19 -4t11 -8t3 -5q1 -1 1 -3q-2 -2 -3 -2l-2 -2q-3 -1 -8 -4.5t-11 -8t-13.5 -12.5t-13.5 -17q-3 -5 -20 -32.5t-52 -83t-73 -116.5q48 -76 96 -153.5t68 -110.5t25 -40q16 -23 34.5 -38t29.5 -18zM311 686q-21 37 -69 37h-3h-1q-4 0 -4 -4t4 -4 q43 -3 58 -33q6 -8 3 -16q-5 -9 -11 -10l-1 -1q-19 -14 -19 -52v-208q0 -1 3 -4h1q2 0 4 2l7 12q1 1 1 2v196q0 38 14 45q10 4 15 15q4 10 -2 23zM107 723q37 0 66 -23q1 -1 1 -3t-1 -3l-1 -1q-1 0 -3 -2q-1 -1 -3 -1q-1 0 -2 1q-27 23 -62 24q-4 0 -4 4t4 4h1h4zM474 715 q-4 0 -4 4q0 3 4 3l1 1h3q23 0 41 -12q2 -2 2 -4q0 -1 -2 -3t-4 -2q-1 -1 -2 -1q-2 0 -2 1q-16 11 -37 13zM298 51q10 -3 15 -15q4 -10 -2 -23q-22 -36 -69 -36h-3h-1q-4 0 -4 4q0 3 4 3q41 3 58 33q6 8 3 16q-4 8 -11 11h-1q-19 14 -19 52v75v1l1 2l28 45q2 2 4 2q1 0 3 -2 l4 -6q1 -3 0 -4l-24 -39v-74q0 -31 14 -45zM172 6l1 -1q1 0 1 -3q0 -2 -1 -3q-28 -22 -66 -22h-4q-4 0 -4 4q0 3 3 3q35 1 62 24q2 3 5 0q1 0 3 -2zM690 46q5 -12 0 -23q-8 -17 -29.5 -31.5t-56.5 -14.5h-2h-1q-4 0 -4 4q0 3 4 3q30 1 49 14.5t25 27.5q5 8 0 17t-13 10 q-2 0 -10.5 3.5t-25 17t-29.5 33.5q-14 20 -184 293v4q7 11 71 112.5t69 108.5q21 31 41 38q8 3 11 11q2 7 -1 16q-15 23 -43 25q-4 0 -4 4q0 3 4 3l1 1h3q16 0 29 -7t18 -13t6 -9q7 -11 2 -22q-4 -12 -16 -16l-5 -4q-5 -3 -14.5 -11.5t-17.5 -19.5q-5 -8 -67.5 -107 t-70.5 -112q170 -274 182 -291q8 -12 17 -21.5t16.5 -15t13.5 -8.5t10 -4l3 -2q12 -1 19 -14zM528 8q1 0 3 -2t2 -3q0 -3 -1 -4q-23 -22 -62 -22h-4h-1q-4 0 -4 4q0 3 4 3q33 1 58 24q3 2 5 0z" />
<glyph unicode="L" horiz-adv-x="662" d="M100 719q0 -4 3 -4q36 0 62 -24q1 0 3 -1q1 1 2 1q2 2 4 3q1 1 1 3q0 3 -1 3q-27 23 -66 23h-5q-3 0 -3 -4zM328 62q4 0 4 -4t-4 -4h-8q-50 0 -50 41v164q0 59 26 73q10 7 10 17q0 12 -10 17q-26 15 -26 74v164q0 41 19 52q7 3 11 11q2 7 -2 16q-20 31 -59 32q-3 0 -3 4 t3 4h4q26 0 44 -12t25 -25q7 -9 3 -22q-5 -12 -15 -15q-15 -10 -15 -45v-164q0 -55 22 -67q15 -8 15 -24t-15 -23q-22 -12 -22 -67v-164q0 -33 43 -33zM642 37q4 -12 -2 -23q-7 -13 -25 -25t-44 -12h-3q-4 0 -4 4t4 4q43 3 58 33q4 7 1 16t-12 11q-1 0 -5.5 2t-12.5 9 t-15 17.5t-12 29t-5 41.5q0 60 -14.5 80.5t-47.5 21.5q-4 0 -4 4t4 4h2q39 0 57.5 -22.5t18.5 -87.5q0 -34 11.5 -56.5t20.5 -28.5t12 -6q13 -6 17 -16zM179 10q2 0 2 -3q0 -1 -2 -3q-29 -27 -70 -27h-5q-3 1 -3 4q0 4 3 4q39 1 65 27q3 3 5 1q1 -1 5 -3zM495 12l2 -2 q2 -2 2 -4t-2 -2q-50 -27 -147 -27h-8q-3 0 -3 4t3 4q101 0 148 28q2 1 5 -1zM610 30q2 0 2 -2v-3l-1 -1q-1 -2 -3 -4t-4.5 -5t-6.5 -5.5t-9 -4.5t-11.5 -3.5t-13.5 -1.5q-43 0 -68 35q-39 -35 -153 -35h-21q-115 0 -153 35q-24 -35 -67 -35q-16 0 -28 6.5t-16.5 11.5 t-4.5 7q-1 1 -1 3l2 2q29 14 29 67v169q0 61 -34 80q-2 2 -2 3q0 2 2 4q33 18 33 82v168q0 50 -27 67h-1q-2 0 -3 2t1 3q0 2 4.5 7t16.5 11.5t28 6.5q42 0 67 -34q25 34 67 34q6 0 12 -1t10.5 -2.5t8.5 -4t7 -4.5t5.5 -4.5t3.5 -4t2 -3.5l1 -1v-3q0 -2 -2 -2h-1 q-1 -1 -3 -2.5t-4 -3.5t-4 -4.5t-4.5 -6.5t-4.5 -9t-3.5 -11t-2.5 -13.5t-1 -16.5v-163q0 -69 34 -87q2 -2 2 -4q0 -1 -2 -3q-34 -19 -34 -87v-164q0 -26 17.5 -41.5t48.5 -15.5h24q38 0 67.5 20t44 46t24 56t11.5 46t2 21q1 3 4 3q28 0 40 -15.5t12 -70.5q0 -15 2 -28.5 t5.5 -23.5t8 -19t9.5 -15t10 -11t9.5 -8t8 -5t6.5 -3z" />
<glyph unicode="M" horiz-adv-x="848" d="M803 346q-30 -16 -34 -62v-188q0 -24 7 -40.5t13 -21t8 -4.5t2 -2v-3l-1 -1q-1 -2 -2 -3.5t-3.5 -4t-5.5 -4.5t-7 -4.5t-8.5 -4t-10.5 -2.5t-12 -1q-42 0 -67 34q-25 -34 -68 -34q-15 0 -27 6.5t-16.5 12t-4.5 6.5q-2 1 0 3q0 2 2 2t8 4.5t13 21t7 40.5v314 q-57 -138 -121 -286q-8 -18 -8 -37q0 -18 7.5 -32.5t14.5 -19.5l7 -5l2 -2v-3l-1 -1q-1 -2 -2.5 -3.5t-3.5 -4t-5 -4.5t-7 -4.5t-8.5 -4t-10.5 -2.5t-12 -1q-45 0 -67 34q-25 -34 -68 -34q-16 0 -28 6.5t-16.5 11.5t-4.5 7q-1 1 -1 3q2 2 3 2q2 0 8 4.5t13 21t7 40.5 q0 14 -8 38q-70 181 -114 287v-325q0 -24 5.5 -40.5t9.5 -21t6 -4.5q2 -2 1 -5q-8 -25 -34 -25q-20 0 -33 15q-12 -15 -34 -15q-26 0 -34 25q0 4 2 5q20 12 20 65v166q0 66 -34 85q-2 2 -2 3q0 2 2 4q34 18 34 85v165q0 50 -27 67h-1q-2 0 -2 2q-1 2 0 3q0 2 4.5 7 t16.5 11.5t28 6.5q43 0 68 -34q25 34 67 34q7 0 13.5 -1.5t11.5 -3.5t9 -4.5t6.5 -5.5t4.5 -5t3 -4l1 -1v-3q0 -2 -2 -2q-13 -5 -23 -29.5t1 -56.5q16 -46 161 -412q162 390 169 412q10 32 0 56t-22 30q-2 0 -2 2q-2 2 0 3q0 1 4.5 6.5t16.5 12t27 6.5q43 0 68 -34 q25 34 67 34q6 0 12 -1t10.5 -2.5t8.5 -4t7 -4.5t5.5 -4.5t3.5 -4t2 -3.5l1 -1v-3q0 -2 -2 -2h-1q-1 -1 -3 -2.5t-4 -3.5t-4 -4.5t-4.5 -6.5t-4.5 -9t-3.5 -11t-2.5 -13.5t-1 -16.5v-188q4 -46 34 -62q2 -2 2 -4q0 -1 -2 -3zM135 -12q0 2 -2 4l-1 1q-2 0 -3 1q-2 2 -4 0 q-12 -7 -28 -9q-4 0 -4 -4t4 -4h5q15 0 31 8q2 2 2 3zM291 592q22 -64 139 -357v-3l-4 -10q-2 -2 -4 -2q-3 0 -3 2q-133 337 -143 368q-8 19 -4 34t8.5 22.5t8.5 9.5q8 3 11 11q2 10 -2 16q-17 31 -58 32q-4 2 -4 4q0 4 4 4h3q48 0 70 -36q5 -12 2 -22q-5 -12 -15 -16 q-3 -2 -6.5 -8t-6 -19t3.5 -30zM618 723h5q38 0 66 -22q1 -1 1 -3q0 -3 -1 -4q-2 -1 -4 -3h-5q-26 24 -62 24q-3 1 -3 4q0 4 3 4zM213 50q19 -8 11 -32q-14 -41 -56 -41h-3q-2 0 -4 4q0 4 4 4q33 3 44 36q7 16 -7 22l-1 1q-13 13 -13 53v226q0 3 3 4q3 0 4 -3l8 -20v-207 q0 -32 10 -47zM104 715q-4 2 -4 4q0 4 4 4h5q37 0 66 -22q0 -1 1 -3v-2l-1 -2q-2 -1 -4 -3h-5q-26 24 -62 24zM384 9l3 -3q2 0 2 -3q0 -2 -1 -3q-31 -23 -66 -23h-5q-3 1 -3 4q0 4 3 4q37 1 62 24q2 2 5 0zM815 52q11 -4 15 -15q4 -12 -3 -23q-7 -13 -25 -25t-44 -12h-4 q-3 0 -3 4t3 4q41 2 59 33q4 9 2 16q-5 9 -11 10l-1 1q-18 13 -18 52v162q0 59 26 73q10 7 10 17q0 12 -10 17q-26 15 -26 74v164q0 41 19 52q7 3 11 11q2 7 -2 16q-20 31 -59 32q-3 1 -3 4q0 4 3 4h4q26 0 44 -11.5t25 -24.5q7 -11 3 -23t-15 -15q-15 -10 -15 -45v-164 q0 -55 22 -67q15 -7 15 -24q0 -16 -15 -23q-22 -12 -22 -67v-162q0 -40 15 -45zM685 9l3 -3q2 0 2 -3q0 -2 -1 -3q-29 -23 -66 -23h-4q-4 2 -4 4q0 4 3 4q37 1 62 24q3 2 5 0zM577 318q4 0 4 -4v-18l-1 -1q-16 -37 -43 -102.5t-32 -77.5q-6 -12 -6 -28q0 -29 17 -37 q9 -4 12 -16q3 -10 -2 -20q-21 -37 -70 -37h-3q-4 0 -4 4t4 4q43 3 58 33q5 7 2 14q-1 6 -9 12q-21 10 -21 43q0 15 7 31l83 198q2 4 4 2z" />
<glyph unicode="N" horiz-adv-x="672" d="M626 346q-35 -19 -35 -87v-163q0 -30 12 -50q12 -16 17 -16v-1q1 -1 1 -2q1 -1 0 -3q0 -1 -4.5 -6.5t-16.5 -11.5t-28 -6q-45 0 -67 34q-25 -34 -67 -34q-6 0 -12 1t-10.5 2.5t-8.5 3.5t-7 4.5t-5.5 4.5t-3.5 3.5t-2 2.5l-1 2v4l2 2q5 2 12.5 12.5t10.5 23.5q9 40 -22 79 q-19 25 -221 276v-356q0 -16 3.5 -27.5t6.5 -15.5l4 -4q2 -2 1 -5q-8 -13 -25 -13q-22 0 -34 15q-12 -15 -34 -15q-8 0 -14.5 3t-9.5 7l-2 3q-2 3 0 5q1 0 4 4t6.5 16t3.5 27v194q0 68 -34 87q-2 2 -2 3q0 2 2 4q34 18 34 87v163q0 50 -27 67h-1q-2 0 -2 2v3l1 1q1 2 2 3.5 t3.5 4t5.5 4.5t7 4.5t8.5 4t10.5 2.5t12 1q25 0 42.5 -11t23.5 -23q25 34 68 34q16 0 28 -6.5t16.5 -11.5t4.5 -7q1 -1 1 -3q-2 -2 -3 -2q-15 -9 -22 -36q-11 -39 22 -80q130 -160 220 -275v355q0 8 -0.5 14.5t-2 11t-3 8.5t-2.5 6.5t-2.5 4l-2.5 2.5v1q-3 1 -1 5 q7 13 25 13q21 0 34 -16q13 16 33 16q8 0 15 -3t10 -7l2 -3q1 -3 -1 -5q-14 -14 -14 -48v-194q0 -69 35 -87q2 -2 2 -4q0 -1 -2 -3zM554 712q0 1 -2 3q-16 8 -32 8h-4q-4 0 -4 -4t4 -4q16 -2 28 -9h4q1 1 3 1l1 1q2 2 2 4zM482 330q-3 0 -3 2l-186 232q-24 32 -20 61 q3 19 15 31q8 3 11 11q2 9 -2 16q-17 31 -58 32q-4 0 -4 4t4 4h3q49 0 70 -37q5 -10 2 -21q-5 -12 -14 -16q-9 -9 -11 -26q-5 -25 18 -54l178 -223l1 -1v-1v-10q0 -3 -4 -4zM103 715q-4 0 -4 4t4 4h4q37 0 66 -23q2 -2 2 -3t-2 -3l-3 -3l-1 -1h-2l-2 1q-25 23 -62 24zM507 9 l3 -3h1q2 -2 2 -3q0 -3 -2 -3q-27 -23 -66 -23h-4q-4 0 -4 4t4 4q35 0 61 24q3 2 5 0zM639 50q10 -5 13 -16t-3 -20q-7 -13 -25 -25t-44 -12h-3q-4 0 -4 4t4 4q41 1 58 32q4 6 2 15q-3 8 -9 11q-4 0 -10 10q-11 15 -11 43v162q0 60 26 74q11 6 11 17q0 12 -11 17 q-26 14 -26 74v194q0 27 9 36v1q12 9 4 23q-11 20 -36 21q-4 0 -4 4t4 4h4q32 0 46 -25q12 -20 -5 -33q-7 -14 -7 -31v-194q0 -55 23 -67q14 -9 14 -24t-14 -24q-23 -12 -23 -67v-162q0 -26 9 -39zM202 356v-291q0 -23 6 -29q16 -16 6 -34q-15 -25 -47 -25h-4q-3 0 -3 4t3 4 q25 1 36 21q9 14 -5 24q-8 12 -8 35v301q0 3 3 3q2 1 4 -1l8 -10q1 0 1 -2zM130 -8h1q2 -1 2 -4q0 -2 -2 -3q-12 -8 -31 -8h-5q-3 0 -3 4t4 4q14 0 28 9h4z" />
<glyph unicode="O" horiz-adv-x="711" d="M486 251q4 31 -2.5 55t-14 32t-9.5 8q-1 1 -1 3q0 3 1 3q34 34 26 95q-11 102 -45 158t-86 56t-86 -55.5t-45 -158.5q-8 -61 25 -94q2 -2 2 -4t-1 -3q-2 0 -9.5 -8t-14 -32t-2.5 -55q11 -102 45 -158t86 -56t86 56t45 158zM697 353q2 -2 2 -4q0 -1 -2 -3 q-15 -8 -24.5 -26.5t-11 -27t-5.5 -29.5l-1 -4q-36 -260 -300 -260t-300 262v2q-8 65 -41 83q-2 2 -2 3q0 2 2 4q32 17 41 82v3q36 261 300 261q265 0 301 -261v-3q0 -1 1.5 -8.5t2 -11t2.5 -11t4 -12t5 -11.5t6.5 -11.5t8.5 -9t11 -7.5zM729 349q0 16 -15 24q-21 11 -29 65 v5q-39 279 -323 279h-4q-3 0 -3 -4t3 -4q273 -2 311 -272l1 -5q8 -57 33 -71q10 -5 10 -17t-10 -17q-25 -14 -33 -71l-1 -5q-38 -270 -311 -272q-3 0 -3 -4t3 -4h4q284 0 323 279v5q8 54 29 65q15 8 15 24zM359 53h-2h-2q-91 0 -116 200q-4 26 1 45.5t9.5 26t8.5 8.5 q9 5 9 16q0 10 -9 16q-26 26 -19 80q25 200 116 200h2h2q3 0 3 -4t-3 -4q-81 -3 -105 -193q-3 -24 1 -42.5t9 -24.5l6 -6q13 -8 13 -23q-2 -15 -13 -22q-2 0 -6.5 -6t-8.5 -24t-1 -42q24 -190 105 -193q3 -1 3 -4q0 -4 -3 -4z" />
<glyph unicode="P" horiz-adv-x="618" d="M321 700q37 0 69.5 -4.5t66.5 -18t58 -35t39 -57.5t15 -83q0 -86 -43.5 -138t-115.5 -52q-30 0 -53.5 8t-31 14.5t-9.5 9.5q-1 1 0 4q0 2 3 2q41 0 63.5 38.5t22.5 111.5v13q0 72 -22.5 110.5t-63.5 38.5q-31 0 -48.5 -15.5t-17.5 -41.5v-1l1 -164q0 -68 34 -87 q3 -1 3 -3t-3 -4q-34 -18 -34 -87v-163q0 -24 7 -40.5t13 -21t8 -4.5t2 -2v-3l-1 -1q-1 -2 -3 -4t-4.5 -5t-6.5 -5.5t-9 -4.5t-11.5 -3.5t-13.5 -1.5q-43 0 -68 34q-25 -34 -67 -34q-7 0 -13.5 1.5t-11.5 3.5t-9 4.5t-6.5 5.5t-4.5 5t-3 4l-1 1q-1 0 -1 1t1 2q0 2 2 2t8 4.5 t13 21t7 40.5v163q0 69 -35 87q-2 2 -2 4q0 1 2 3q35 19 35 87v163q0 50 -27 67h-1q-2 0 -2 2q-1 2 0 3l1 1q1 2 3 4t4.5 5t6.5 5.5t9 4.5t11.5 3.5t13.5 1.5q40 0 68 -35q39 35 153 35zM178 696q-30 27 -71 27h-5q-3 0 -3 -4t4 -4q37 -1 65 -27q1 -1 3 -1h2l4 3q2 0 2 3 q0 2 -1 3zM319 646h3q3 0 3 -4q0 -2 -3 -4q-38 -1 -38 -33v-165q0 -55 23 -67l4 -3q2 -2 2 -4l-1 -1l-2 -2q-1 0 -3 -2q-1 -1 -3 -1q-1 0 -3 2q-3 3 -6 4q-26 14 -26 74l-1 165q0 41 51 41zM324 723h4q131 0 201.5 -57t70.5 -164q0 -95 -50.5 -154t-132.5 -59q-1 0 -3 1h-1 q-4 0 -4 3q0 4 4 4q76 1 123.5 58t47.5 147q0 103 -67 157.5t-193 55.5q-4 0 -4 4t4 4zM173 6q2 -2 2 -3q0 -3 -2 -3q-27 -23 -66 -23h-4q-4 0 -4 4t4 4q36 1 61 24q3 1 6 0zM299 51q11 -3 15 -15q5 -11 -2 -22q-21 -37 -70 -37h-3q-4 0 -4 4t4 4q41 1 58 32q4 9 2 16 q-3 8 -11 11h-1q-18 14 -18 52v163q0 59 26 73l4 2q2 3 5 0q0 -2 3 -3q1 -1 1 -3q0 -3 -2 -3q-22 -13 -22 -66v-163q0 -35 15 -45z" />
<glyph unicode="Q" horiz-adv-x="777" d="M719 166q8 -19 8 -44q0 -18 -6.5 -37t-21 -39.5t-43 -33.5t-66.5 -13q-45 0 -94 26q-57 -25 -141 -25q-267 0 -300 264v-1q-8 65 -41 83q-2 2 -2 3q0 2 2 4q32 17 41 82v-1q33 266 300 266q266 0 299 -267q12 -64 41 -80q2 -2 2 -4q0 -1 -2 -3q-30 -16 -41 -80 q-9 -80 -39 -135q24 -13 44 -13q43 0 53 46v1q0 3 2 3q2 2 4 0q1 0 1 -2zM355 39q42 0 72 36l-2 2q-56 43 -78 49q-10 3 -19 3q-18 0 -30.5 -10t-16 -18t-5.5 -16q32 -46 79 -46zM459 346q-1 1 -1 3q0 3 1 3q30 30 27 84q-10 107 -44 165.5t-87 58.5q-54 0 -88 -59.5 t-44 -168.5q-2 -50 27 -79q2 -2 2 -4t-1 -3q-2 0 -8.5 -7t-13.5 -27t-6 -46q9 -99 38 -157q0 3 -0.5 8t-0.5 7q0 18 6.5 37.5t21 40t43 33.5t66.5 13q41 0 85 -21l3 24q4 31 -2.5 55t-14 32t-9.5 8zM363 641q0 4 -4 4h-1h-3q-91 0 -116 -200q-4 -26 1.5 -46.5t10.5 -26.5 t8 -8q9 -6 9 -16q-2 -10 -10 -16q-4 -2 -8.5 -8t-9 -25.5t-1.5 -45.5q7 -48 13 -75q2 -3 4 -3q3 0 3 2l6 9q1 2 0 3q-7 34 -11 65q-3 24 1 42t8.5 24t6.5 6q13 8 13 22t-12 23q-2 0 -6.5 6t-9 24t-1.5 43q25 189 105 193q4 0 4 4zM670 437v5q-38 270 -311 272q-4 0 -4 4t4 4 h4q283 0 322 -279l1 -5q5 -53 29 -66q14 -6 14 -23q0 -16 -14 -24q-24 -13 -29 -66l-1 -5q-9 -64 -31 -112q8 -2 10 -2q4 0 4 -4q0 -2 -4 -4h-8h-4q-8 0 -14 3l-1 1v2v2q24 49 33 115v5q8 58 33 72q11 5 11 17q0 11 -11 17q-25 13 -33 71zM473 258q3 -2 3 -4v-3q0 -1 -2 -3 l-2 -1l-2 1q-36 14 -69 14q-4 0 -4 4t3 4h5q35 0 68 -12zM328 112h5q3 0 3 -4q0 -2 -3 -4q-22 -2 -27 -28q0 -2 -3 -3h-1l-2 1l-7 5q-3 3 -1 4q2 10 11 19.5t25 9.5zM750 172q9 -24 9 -50q0 -22 -7.5 -45t-24.5 -47t-50 -39.5t-78 -15.5h-4q-3 0 -3 4q0 3 3 3q42 1 73 16 t46.5 37.5t22.5 44.5t7 42q0 26 -9 48q-3 11 -15 13q-3 0 -3 4q0 3 3 3q2 1 7 1q18 -2 23 -19z" />
<glyph unicode="R" horiz-adv-x="709" d="M656 107q3 -1 3 -4q0 -46 -28.5 -74t-75.5 -28q-28 0 -52 8.5t-47 28t-36.5 59.5t-13.5 97q0 38 -9.5 68t-19.5 44.5t-27 25t-21 11.5t-11 3q-3 0 -3 4q0 3 4 3q29 0 57 44.5t28 110.5v5q0 72 -22 110.5t-63 38.5q-31 0 -48.5 -15t-17.5 -42v-165q0 -68 35 -87q2 -2 2 -3 q0 -2 -2 -4q-35 -18 -35 -87v-162q0 -48 28 -67q1 0 3 -2q0 -2 -1 -3q0 -2 -4.5 -7t-16.5 -11.5t-28 -6.5q-42 0 -67 34q-22 -34 -67 -34q-6 0 -12 1t-10.5 2.5t-8.5 4t-7 4.5t-5 4.5t-3.5 4t-2.5 3.5l-1 1v3l2 2h1q1 1 3 2.5t4 3.5l4.5 4.5t5 6.5t4.5 9t3.5 11t2.5 13.5 t1 16.5v172q-3 60 -34 76q-2 1 -2 4q0 2 2 3q31 16 34 76v176q0 24 -7.5 40.5t-13.5 21t-8 4.5l-2 2v3l1 1q1 2 2.5 3.5t3.5 4t5 4.5t7 4.5t8.5 4t10.5 2.5t12 1q46 0 68 -35q39 35 152 35q48 0 88 -8.5t78.5 -28.5t60.5 -61t22 -99q0 -108 -71 -158q71 -38 71 -170 q0 -40 16 -63t37 -23q17 0 30 16q1 2 4 2zM325 643q0 3 -3 4h-3q-51 0 -51 -41l1 -166q0 -59 26 -73q2 -1 5 -4q1 -1 2 -1h1q1 1 2 1l3 3q2 0 2 3t-2 3l-1 1q-23 12 -23 67l-1 166q0 32 39 33q3 0 3 4zM102 723h5q40 0 71 -26q1 -1 1 -4q0 -1 -2 -3l-5 -2l-1 -1q-1 0 -3 1 q-29 27 -66 28q-3 0 -3 3q0 4 3 4zM627 105h-5q-14 0 -26 18t-12 53q0 120 -57 168q-2 2 -2 3t2 3q57 54 57 152q0 103 -67 158t-193 56q-4 0 -4 4q0 3 4 3h4q131 0 201.5 -57t70.5 -164q0 -98 -57 -155q57 -51 57 -171q0 -30 8.5 -45.5t18.5 -17.5q3 0 3 -4q0 -3 -3 -4z M169 9q2 -2 3 -2q2 -2 2 -4t-1 -3q-29 -23 -66 -23h-4q-4 2 -4 4q0 4 4 4q34 1 61 24q3 2 5 0zM671 129q19 -7 19 -26q0 -55 -35.5 -90t-91.5 -35h-6q-4 2 -4 4q0 4 4 4q52 1 84.5 33.5t32.5 83.5q0 15 -13 18l-2 1q-4 0 -4 4q0 2 4 4h4q5 0 8 -1zM299 52q11 -4 15 -15 q5 -11 -3 -23q-7 -13 -25 -25t-44 -12h-3q-4 0 -4 4t4 4q43 3 58 33q4 9 2 16q-3 8 -11 10q0 1 -1 1q-18 13 -18 52v162q0 59 26 74q1 0 2.5 1.5t2.5 1.5q2 2 5 0l3 -3q2 0 2 -3q0 -1 -2 -3l-1 -1q-23 -12 -23 -67v-162q0 -40 15 -45z" />
<glyph unicode="S" horiz-adv-x="603" d="M564 200q2 0 2 -3q0 -2 -2 -4q-36 -18 -55 -67q-23 -62 -80.5 -94t-128.5 -32q-86 0 -133 35q-25 -36 -68 -36q-7 0 -13.5 1.5t-11.5 3.5t-9 4.5t-6.5 5.5t-4.5 5l-3 3l-1 2v4q2 2 3 2q59 30 59 113q0 56 12 71.5t41 15.5q4 0 4 -4q0 -5 2 -21t10 -46t20.5 -56t37.5 -46 t57 -20q31 0 49 24q27 35 14 81q-5 19 -15.5 36t-29 33.5t-32.5 27t-40 27.5q-41 27 -62.5 43.5t-49 50t-38.5 71.5q-24 52 -54 68q-2 2 -2 4q0 1 2 3q37 19 55 65q22 63 80.5 96t129.5 33q86 0 133 -35q24 35 68 35q7 0 13.5 -1.5t11.5 -3.5t9 -4.5t6.5 -5.5t4.5 -5t3 -4 l1 -1v-3q-2 -2 -3 -2q-59 -30 -59 -113q0 -56 -12 -71.5t-41 -15.5q-4 0 -4 4q0 5 -2 21t-10 46t-20.5 56t-37.5 46t-57 20q-30 0 -49 -24q-27 -35 -14 -82q6 -25 26 -49t37.5 -37t53.5 -37q40 -27 62.5 -44t50 -51t38.5 -72q23 -52 52 -67zM442 451q0 -2 4 -4h1 q39 0 57.5 22.5t18.5 87.5q0 21 4.5 38t10.5 26.5t12.5 16t11 8.5t5.5 2q12 5 17 16q4 12 -2 23q-7 13 -25 25t-44 12h-2h-1q-4 0 -4 -4t4 -4q42 -3 58 -32q4 -9 1 -17q-3 -7 -12 -11q-49 -24 -49 -99q0 -59 -15 -79.5t-48 -22.5q-3 0 -3 -4zM309 716q-4 0 -4 4t4 4h3 q74 0 126 -27q2 0 2 -3q1 -1 -1 -3l-1 -1l-2 -2q-1 -1 -2 -1l-2 1q-49 27 -123 28zM173 11l4 -2q2 -2 2 -3q1 -1 0.5 -2t-1.5 -1q-30 -28 -71 -28h-5q-5 0 -3 4q0 4 3 4q37 1 66 28q2 2 5 0zM305 56q0 -4 -4 -4l-4 -1q-16 0 -30 6t-24.5 16t-19 23t-14.5 27.5t-10.5 28.5 t-7 27.5t-4 23.5t-2.5 17l-1 6q0 8 -5 13t-13 5q-3 0 -3 4t4 4h6q11 0 18.5 -7.5t8.5 -17.5q0 -4 1.5 -18t8 -40.5t16.5 -49.5t30 -41t45 -19q4 0 4 -3zM584 220q14 -6 14 -23q0 -16 -14 -24q-28 -15 -42 -54q-26 -73 -92 -108t-142 -35h-5q-4 0 -4 3q0 4 4 4q73 1 136 35 t88 104q16 42 46 58q10 5 10 17q0 10 -10 17q-26 14 -45 59q-10 31 -26 56.5t-41.5 48.5t-42.5 35.5t-48 33.5q-34 22 -51.5 35t-35.5 34.5t-24 44.5q-9 41 12 69q13 18 37 18h2h1q4 0 4 -4t-3 -4q-16 -2 -27 -15q-20 -25 -10 -62q7 -30 32 -53.5t75 -56.5q31 -20 49 -33.5 t43 -36t42 -49.5t27 -58q20 -44 41 -56z" />
<glyph unicode="T" horiz-adv-x="848" d="M796 675q2 -1 0 -3q0 -2 -2 -2q-3 -1 -7.5 -3t-14.5 -10.5t-18 -20t-14 -33t-6 -47.5q0 -55 -12 -70.5t-41 -15.5q-4 0 -4 3q-18 184 -126 184q-31 0 -48.5 -14t-17.5 -38v-165q0 -68 35 -87q2 0 2 -3q0 -2 -2 -4q-35 -18 -35 -87v-162q0 -50 27 -67h1q2 0 2 -2 q1 -2 0 -3l-1 -1q-1 -2 -3 -4t-4.5 -5t-6.5 -5.5t-9 -4.5t-11.5 -3.5t-13.5 -1.5q-43 0 -68 34q-25 -34 -68 -34q-7 0 -13.5 1.5t-11.5 3.5t-9 4.5t-6.5 5.5t-4.5 5t-3 4l-1 1v3q0 2 2 2h1q1 1 3 2.5t4 3.5t4 4.5t4.5 6.5t4.5 9t3.5 11t2.5 13.5t1 16.5v162q0 62 -27 83 l-6 4q-2 1 -2 4t2 3q33 18 33 87v165q0 24 -17.5 38t-48.5 14q-53 0 -85 -47t-40 -137q-2 -3 -4 -3q-29 0 -41.5 15.5t-12.5 70.5q0 26 -6 47.5t-14 33t-18 20t-14.5 10.5t-7.5 3q-2 0 -2 2v3l1 1q1 2 3 4t4.5 5t6.5 5.5t9 4.5t11.5 3.5t13.5 1.5q41 0 69 -35q35 35 133 35 q109 0 147 -21q38 21 147 21q95 0 134 -35q25 35 68 35q16 0 28 -6.5t16.5 -11.5t4.5 -7zM118 689q1 -1 3 -1h2q1 0 2 1l2 2q2 0 2 3q0 2 -1 3q-31 26 -70 26h-5q-4 0 -4 -4q0 -3 4 -3q37 -1 65 -27zM404 705q2 0 2 -3q0 -2 -2 -4l-4 -1l-1 -1h-1l-1 1q-46 18 -140 19 q-4 0 -4 3q0 4 4 4h3q98 0 144 -18zM246 642l5 -1q4 0 4 -3q0 -4 -4 -4q-48 -1 -71 -48.5t-29 -114.5q-2 -11 -9.5 -17.5t-17.5 -6.5h-7q-3 0 -3 4q0 3 3 3q16 2 18 18q17 170 111 170zM681 697q2 0 2 -3q0 -2 -1 -3l-1 -1l-2 -1q-1 -1 -3 -1h-2q-45 27 -126 28q-4 0 -4 3 q0 4 4 4h5q83 0 128 -26zM824 687q6 -13 2 -23q-5 -12 -17 -16q-44 -22 -44 -92q0 -64 -18.5 -86.5t-57.5 -22.5h-2q-5 0 -3 4q0 3 3 3q33 2 47.5 22.5t14.5 79.5q0 74 49 99q10 3 13 11t-1 17q-19 31 -59 33q-3 0 -3 3q0 4 4 4h1h2q26 0 44 -11.5t25 -24.5zM553 642l1 -1 q4 0 4 -3q0 -4 -4 -4q-38 -2 -38 -29v-165q0 -54 22 -67q15 -7 15 -23t-15 -24q-22 -12 -22 -67v-162q0 -35 15 -45q10 -5 14 -15t-2 -23q-7 -13 -25 -25t-44 -12h-3h-1q-3 1 -4 4q0 4 4 4q41 2 59 33q4 9 2 16q-5 9 -12 11q-19 14 -19 52v162q0 59 27 74q10 5 10 17 q0 10 -10 17q-27 14 -27 73v165q0 37 51 37h2zM401 9l3 -2q2 -2 2 -4t-1 -3q-29 -23 -66 -23h-4q-4 2 -4 4q0 4 3 4q35 1 62 24q1 1 2.5 1t2.5 -1z" />
<glyph unicode="U" horiz-adv-x="548" d="M560 352q2 0 2 -3q0 -2 -2 -4q-34 -18 -35 -58v1q-2 -49 -7 -87.5t-19 -77.5t-35.5 -65t-58 -42t-84.5 -16h-53q-58 0 -101 16t-68 41t-40 63.5t-20.5 74t-6.5 82.5q-5 52 -36 68q-2 2 -2 4q0 1 2 3q35 19 35 87v164q0 50 -27 67h-1q-1 0 -3 2q0 2 1 3q0 2 4.5 7 t16.5 11.5t28 6.5q42 0 67 -34q22 34 67 34q6 0 12 -1t10.5 -2.5t8.5 -4t7 -4.5t5.5 -4.5t3.5 -4t2 -3.5l1 -1v-3l-2 -2h-1q-1 -1 -3 -2.5t-4 -3.5t-4 -4.5t-4.5 -6.5t-4.5 -9t-3.5 -11t-2.5 -13.5t-1 -16.5v-174q1 -60 35 -77q2 -2 2 -3q0 -2 -2 -4q-31 -16 -34 -79 q4 -116 25.5 -152.5t82.5 -36.5q54 0 83.5 45t36.5 143q0 63 -32 80q-2 1 -2 4t2 3q34 19 35 74v177q0 24 -5 40.5t-11 21.5l-5 5q-2 2 -2 5l1 3q2 3 4.5 6.5t6.5 7t10 6t13 2.5q19 0 32 -16q13 16 33 16q26 0 35 -26q0 -2 -2 -4q-21 -13 -21 -67v-164q0 -67 35 -87zM313 92 h2q4 0 4 3q0 4 -4 4q-28 1 -41 8t-24 41.5t-13 105.5v4v3q0 53 20 64q15 7 15 24q0 16 -15 23q-21 12 -22 58v1v172q0 35 15 45q10 3 15 15q4 12 -3 23q-7 13 -25 24.5t-44 11.5h-2h-2q-3 0 -3 -4q0 -3 3 -3q40 -2 59 -33q4 -9 2 -16q-4 -8 -11 -11h-1q-18 -13 -18 -52v-172 v-2q2 -50 26 -63q10 -7 10 -17q0 -12 -10 -17q-25 -14 -25 -71v-3v-4q3 -73 14 -108t27.5 -44.5t50.5 -9.5zM450 715q-3 0 -3 3q0 4 3 4h5q19 0 31 -8q2 0 2 -3t-2 -3l-1 -1q-1 0 -1 -0.5t-1 -0.5l-2 -1q-2 0 -2 1q-14 8 -29 9zM58 722q38 0 66 -22q1 -1 1 -3q0 -3 -1 -3 q-3 -3 -4 -3l-2 -1q-2 0 -3 1q-27 23 -62 24q-3 0 -3 3q0 4 3 4h5zM579 372q14 -6 14 -23q0 -16 -14 -24q-19 -11 -23 -42q-2 -49 -7.5 -87.5t-20.5 -81.5t-38.5 -71.5t-64.5 -47.5t-96 -19h-8q-4 0 -4 4t4 4q53 0 93 18.5t62.5 46t37 70t20 80t7.5 85.5q4 35 27 48 q10 5 10 17q0 10 -10 17q-27 14 -27 73v164q0 39 13 52q0 1 0.5 1t0.5 1q12 4 8 22q-11 32 -45 36q-3 0 -3 3q0 4 4 4h1h2q22 0 36.5 -13t19.5 -28q8 -22 -11 -31q-10 -10 -10 -47v-164q0 -55 22 -67z" />
<glyph unicode="V" horiz-adv-x="595" d="M588 690q3 -3 5 -7.5t2 -6.5v-3q0 -4 -4 -4q-3 0 -7 -2t-15 -19t-19 -46q-1 -4 -8 -29t-20 -70t-25 -87q-9 -42 15 -66q2 0 2 -3q0 -2 -2 -4q-40 -18 -58 -74q-76 -263 -77 -266t-4 -3h-150q-3 0 -4 3q0 1 -10 35.5t-31.5 109t-36.5 126.5q-17 51 -56 68q-2 0 -2 3 q0 2 2 4q3 0 8 6.5t9 22.5t-4 45q-10 35 -22.5 78.5t-19.5 68t-9 32.5q-5 17 -11 29.5t-11.5 19.5t-10.5 11.5t-8 5.5l-3 2q-2 0 -2 2q-1 2 0 3q0 2 4.5 7t16.5 11.5t28 6.5q43 0 68 -34q28 34 68 34q6 0 12 -1t10.5 -2.5t8.5 -4t7 -4.5t5.5 -4.5t3.5 -4t2 -3.5l1 -1v-3 q-2 -2 -3 -2h-1q-1 -1 -2.5 -2t-3.5 -2.5t-4 -3.5t-4 -5q-11 -18 0 -53q2 -8 28.5 -99.5t53.5 -185.5t39 -138q2 8 28 98.5t41 143.5q32 108 53 181q12 45 1 60l-8 5q-2 0 -4 2v4l2 2q1 2 3 5t5.5 6t8 5.5t10.5 4.5t13 2q24 0 31 -18q13 18 36 18q20 0 29 -10zM490 718 q0 -4 4 -4q18 0 28 -9l1 -1h2q1 1 2 1q1 1 2 1l2 1l1 1q0 2 1 2q0 2 -2 4q-16 8 -32 8h-5q-4 0 -4 -4zM612 705q14 -14 14 -34q-2 -22 -22 -25q-13 -9 -24 -51q-1 -4 -6.5 -22.5t-18.5 -65t-26 -91.5l-2 -4q-7 -34 3 -41q14 -6 16 -23q0 -16 -17 -26q-31 -14 -44 -58 l-78 -268q-7 -20 -27 -20h-7q-4 0 -4 4t4 4q15 0 18 14q39 130 79 268q14 48 48 63q13 7 12 18q0 12 -11 17q-1 0 -1 1q-14 10 -6 48l2 5q13 45 26 91.5t18.5 65t6.5 22.5q11 44 27 56h2q16 4 16 18q0 17 -11 29q-15 13 -36 14q-4 0 -4 4t4 4h1h2q31 0 46 -17zM247 646 q-7 -7 1 -37q2 -5 11 -36.5t33 -114.5t55 -193v-2l-4 -14q-1 -3 -4 -3t-4 3q-99 346 -102 358q-12 39 3 46l1 1q9 0 14 9t-2 19q-17 31 -59 32q-4 0 -4 4t4 4h1h2q50 0 71 -37q8 -14 1 -25q-6 -13 -18 -14zM59 722q35 0 66 -23q1 0 1 -3q0 -2 -1 -3q-2 -1 -4 -3h-1l-2 -1 l-1 1h-1q-25 23 -62 24q-4 0 -4 4t4 4h5z" />
<glyph unicode="W" horiz-adv-x="914" d="M907 690q4 -3 5.5 -7.5t1.5 -6.5v-3q0 -4 -4 -4q-3 0 -7 -2t-14.5 -19t-18.5 -46l-52 -182q-7 -26 -2.5 -41.5t9.5 -21.5t7 -6q2 -2 2 -4q0 -3 -2 -3q-39 -17 -58 -75q-68 -240 -77 -266q0 -3 -4 -3h-150q-4 0 -4 3l-81 283l-82 -283q0 -3 -4 -3h-150q-4 0 -4 3 q-6 19 -77 269q-18 52 -56 70q-2 1 -2 4q0 2 2 3q25 25 14 69l-23 80.5t-20 70.5t-10 33q-5 17 -11 29.5t-11.5 19.5t-10 11.5t-7.5 5.5l-3 2q-1 0 -3 2v3l1 1q1 2 2 3.5t3.5 4t5.5 4.5t7 4.5t8.5 4t10.5 2.5t12 1q42 0 67 -34q25 34 68 34q16 0 28 -6.5t16.5 -11.5t4.5 -7 q2 -1 0 -3q0 -2 -2 -2l-2 -1l-4 -2t-5 -4t-5 -6q-11 -18 0 -53q5 -17 27.5 -95t51.5 -178t44 -150q5 18 19 66.5t28 98.5t26 91l1 4q-24 87 -46 161q-5 17 -11 29.5t-11.5 19.5t-10 11.5t-7.5 5.5l-3 2q-3 0 -3 2q0 3 1 4q24 24 56 24q45 0 80 -35q35 35 80 35q32 0 56 -24 q1 -1 1 -4q0 -2 -2 -2h-1q-42 -24 -38 -99q2 -31 13 -70t44 -151t44 -153l5 -16q4 13 28.5 100t39.5 139q15 51 53 184q12 46 2 60l-9 5q-1 0 -3 2t0 4q0 1 4 6.5t14 12t22 6.5q23 0 32 -18q13 18 36 18q19 0 28 -10zM667 265l-70 242q-14 47 -11.5 78t9 44.5t14.5 17.5 q14 5 17 18q4 13 -6 25q-3 4 -10.5 10.5t-26 14t-38.5 7.5h-3q-4 0 -4 -4t4 -4q17 -1 33 -8t22.5 -12.5t8.5 -8.5q8 -8 5 -18t-12 -13q-11 -5 -19 -20.5t-10.5 -48.5t12.5 -81q9 -32 35 -122.5t38 -132.5q1 -3 4 -3t4 3l4 14v2zM246 646q-7 -7 1 -37q2 -5 11 -36.5 t33 -114.5t55 -193v-2l-4 -13q-2 -4 -4 -4t-4 3l-102 358q-12 39 3 46q1 0 1 1q10 0 14 9q5 9 -2 19q-17 31 -59 32q-4 0 -4 4t4 4h3q50 0 71 -37q8 -14 1 -25q-6 -13 -18 -14zM814 714q-4 0 -4 4t4 4h5q16 0 32 -8q1 -1 1 -4q0 -2 -2 -3l-1 -1q-2 0 -2 -1l-2 -1h-1l-2 1 q-10 9 -28 9zM382 722h4q40 0 78 -27q2 -2 2 -3t-2 -3l-1 -1l-3 -2q-1 -1 -2 -1l-2 1q-36 27 -74 28q-5 0 -5 4t5 4zM931 705q15 -14 15 -34q-2 -21 -23 -25q-12 -8 -23 -51q-1 -4 -7 -24.5t-19 -66t-27 -93.5q-7 -33 3 -40q15 -7 15 -23q1 -16 -16 -26q-31 -14 -44 -58 l-79 -268q-5 -20 -26 -20h-7q-4 0 -4 4t4 4q15 0 18 14l78 268q16 48 49 63q12 6 12 18t-11 17q-1 0 -1 1q-14 10 -6 48q48 165 52 184q12 46 29 56q16 4 16 18q0 17 -11 29q-13 13 -35 14q-4 0 -4 4t4 4h3q30 0 45 -17zM458 219q3 0 3 -3l4 -13v-2l-59 -205q-5 -20 -26 -20 h-8q-4 0 -4 4t4 4q16 0 19 14l63 218q2 3 4 3zM53 722h5q35 0 66 -23q1 0 1 -3q0 -2 -1 -3q-2 -1 -4 -3h-1q-1 -1 -2 -1t-1 0.5t-1 0.5q-25 23 -62 24q-4 0 -4 4t4 4z" />
<glyph unicode="X" horiz-adv-x="662" d="M605 690q3 -4 5 -8t2 -6v-3q0 -4 -4 -4q-34 -4 -64 -54l-147 -237l27 -51q35 -60 96 -87q2 -2 2 -3q0 -3 -1 -4q-12 -8 -14 -25t2 -31.5t10 -27.5q13 -27 27 -51q13 -25 28 -39.5t21.5 -17.5t9.5 -3q1 0 3 -2q0 -3 -1 -4l-1 -2l-2.5 -2.5l-4 -4t-5.5 -5t-6.5 -5.5 t-7.5 -5t-8.5 -4t-10 -3t-11.5 -1q-41 0 -68 33q-18 -33 -60 -33q-33 0 -57 24q-1 1 0 4q0 2 2 2q17 5 23 20q8 16 -7 45q-10 19 -36 67.5t-40 74.5q-57 -91 -91 -143q-20 -29 -14 -48q3 -6 8 -10t9 -5l4 -1q1 0 3 -2v-3l-2 -2q-1 -2 -3 -5t-5.5 -6t-7.5 -5.5t-10 -4.5 t-12 -2q-27 0 -48 21q-26 -21 -52 -21q-19 0 -29 10q-7 7 -7 17q2 3 4 3q34 4 65 54q38 64 147 231l-33 61q-19 36 -38.5 53t-53.5 31q-2 2 -2 4q0 1 2 3q28 21 7 73l-32 62q-12 24 -26.5 39t-23.5 18l-8 3q-3 0 -3 2q-2 2 0 4l1 2l2.5 2.5l4 4t5.5 5t6.5 5.5t7.5 5t8.5 4 t10 3t11.5 1q44 0 68 -33q18 33 60 33q33 0 57 -24q1 -1 1 -4q-2 -2 -3 -2l-4 -2q-4 -2 -9.5 -6.5t-8.5 -10.5q-7 -18 6 -46q66 -129 77 -150q16 24 37.5 56.5t36.5 55.5t25 38q18 29 11 45q-3 7 -9.5 11.5t-12.5 6.5l-5 1q-1 0 -3 2v4l1 1q1 2 2.5 4t4 4.5t6 5t7.5 4.5 t9 3.5t11 1.5q29 0 47 -21q26 21 52 21q20 0 29 -9zM186 698q0 2 -1 3q-31 21 -64 21l-2 -1h-2q-3 0 -3 -4q0 -3 3 -3q35 -1 59 -23h3q2 0 2 1q1 0 3 2l1 1q1 0 1 3zM308 614q25 -52 58 -113q0 -2 -1 -4l-4 -6q-2 -2 -3 -2q-2 0 -4 2q-23 46 -61 120q-11 21 -6 32q4 7 12 10 q11 4 14 13q3 10 -4 19l-4 3q-4 4 -9 7.5t-12.5 8t-17.5 7t-21 3.5q-4 0 -4 4q0 3 4 3h1l2 1q42 0 74 -32q9 -11 6 -26q-5 -15 -19 -18q-6 -2 -7 -6q-4 -7 6 -26zM480 713q-4 0 -4 4t4 4h4q24 0 47 -15q1 0 1.5 -1t-0.5 -2q0 -3 -2 -3v-1q-2 0 -4 -2h-2q-1 0 -2 1 q-21 14 -42 15zM616 644q-2 0 -7.5 -2.5t-17.5 -12.5t-22 -27q-21 -36 -138 -224l1 -4l20 -36q29 -51 84 -76q14 -6 16 -22q2 -15 -11 -25q-6 -4 -4 -21.5t11 -34.5q7 -15 17 -33v-1q4 -7 7 -14q19 -36 43 -48q13 0 20 -14q6 -13 -3 -27q-2 -4 -9 -12.5t-26.5 -19.5 t-40.5 -11h-2l-2 1q-4 0 -4 3q0 4 4 4q7 0 13 1.5t11.5 4t10.5 5.5t9 6t7.5 6t6 6t4.5 5l3 3l1 2q7 11 2 19q-4 10 -15 11q-24 6 -47 52l-7 13l-1 1q-10 18 -17 33q-9 18 -11 37t7 30q10 6 8 17q-2 12 -12 16q-56 24 -88 80q-15 28 -19 36l-3 5v4q110 176 140 226 q21 36 52 46q18 2 18 18q0 17 -11 29q-13 13 -35 14q-4 0 -4 4t3 4h4q30 0 45 -17q14 -14 14 -34q-1 -10 -8 -17.5t-17 -8.5zM486 9l4 -2q1 -1 1 -3q0 -3 -1 -4q-26 -21 -61 -21h-3l-1 1q-4 0 -4 3q0 4 4 4q33 1 56 22q2 3 5 0zM309 201l4 -6v-4q-65 -99 -70 -107 q-6 -8 -8.5 -14.5t-2.5 -9.5v-2q0 -2 4 -2q13 -3 19 -15q5 -10 0 -24q-22 -38 -61 -38h-3l-1 1q-4 0 -4 3q0 4 4 4q33 2 50 33q4 9 0 18q-3 8 -13 10q-8 2 -10 7q-4 9 12 33q10 15 35 53.5t39 60.5l1 1l2 1l2 -1q1 -1 1 -2zM140 3l3 -3q2 0 2 -3t-2 -3q-27 -15 -47 -15h-4 l-1 1q-4 0 -4 3q0 4 4 4q20 2 45 16q2 2 4 0z" />
<glyph unicode="Y" horiz-adv-x="646" d="M590 689q6 -6 6 -17q0 -3 -3 -3q-4 0 -12 -2t-24 -15.5t-28 -36.5q-21 -41 -69.5 -144.5t-56.5 -122.5q0 -66 35 -86q2 0 2 -3t-2 -3q-35 -19 -35 -87v-73q0 -24 7 -40.5t14 -21.5l7 -4q2 -2 2 -3v-3l-1 -1q0 -1 -1.5 -2.5t-3 -3.5t-4 -3.5t-5 -3.5t-6.5 -4t-8 -3t-9 -2 t-11 -1q-42 0 -68 33q-23 -33 -67 -33q-6 0 -12 1t-10.5 2.5t-8.5 3.5t-6.5 4.5t-5 4.5t-3.5 3.5t-2 2.5l-1 2v3q0 1 2 3q2 0 8 4.5t13 21t7 40.5v73q0 68 -34 87q-2 0 -2 3t2 3q34 20 34 86q-6 15 -118 254q-12 24 -26.5 39t-23.5 17l-8 3l-2 1q-1 1 -1 2q-1 2 0 3 q2 3 7.5 9.5t19.5 15t30 8.5q41 0 66 -34q20 34 61 34q31 0 56 -25q1 -1 1 -3l-3 -3q-15 -4 -21 -17q-9 -18 5 -47q21 -44 82 -176l86 175q15 35 6 52q-3 5 -8.5 8t-8.5 4l-4 1q-2 0 -3 2q-1 1 0 3q0 1 4 6.5t14 12t22 6.5q25 0 46 -21q26 21 52 21q19 0 29 -10zM463 718 q0 -3 4 -3q25 -1 42 -16h3h2l3 2h1q2 2 2 4q0 1 -2 3q-21 15 -47 15l-1 -1h-3q-4 0 -4 -4zM302 615q6 -12 27 -57.5t35 -74.5v-3l-4 -8q-2 -2 -4 -2q-3 0 -3 2q-13 29 -35 75t-31 65q-11 22 -5 33q2 5 10 9q0 1 1 1q11 2 14 13q3 9 -4 18q-28 28 -64 29q-4 0 -4 4t4 4h1h2 q20 0 38 -7.5t25.5 -14t10.5 -10.5q9 -11 6 -26q-5 -15 -20 -18q-3 0 -6 -5q-2 -10 6 -27zM319 7l4 -2l1 -1v-3q0 -2 -1 -3q-29 -23 -66 -23l-4 1q-4 0 -4 3q0 4 3 4q35 1 62 24q3 3 5 0zM113 723h2q35 0 64 -21q1 -1 1 -3t-1 -3h-1l-3 -3q0 -1 -2 -1t-3 1q-23 21 -59 22 q-3 0 -3 4t3 4h2zM615 706q13 -14 13 -34q-1 -11 -8.5 -18.5t-17.5 -7.5q-2 0 -7.5 -2t-17 -12t-19.5 -27q-37 -71 -124 -262q0 -49 23 -61q14 -9 14 -24t-14 -24q-23 -12 -23 -67v-72q0 -35 15 -45q11 -4 15 -15q4 -12 -3 -23q-7 -13 -25 -25t-44 -12q-2 0 -2 1h-2 q-3 0 -3 3q0 4 3 4q42 3 59 33q4 9 2 16q-3 8 -12 11q-18 13 -18 52v72q0 60 26 74q10 5 10 17t-10 17q-26 14 -26 70q69 157 124 263q18 35 50 46q18 0 20 18q0 17 -11 28q-14 14 -36 15q-4 0 -4 3q0 4 4 4l4 1q26 0 45 -17z" />
<glyph unicode="Z" horiz-adv-x="682" d="M632 28v-3l-1 -1q-1 -2 -3 -4t-4.5 -5t-6.5 -5.5t-9 -4.5t-11.5 -3.5t-13.5 -1.5q-43 0 -68 35q-39 -35 -153 -35h-32q-98 0 -138 36q-40 -36 -82 -36q-6 0 -12 1t-10.5 2.5t-8.5 4t-7 4.5t-5.5 4.5t-3.5 4t-2 3.5l-1 1v3q1 2 3 2h2l5 2.5t7.5 4.5t10 8t11 11.5t12.5 17 t14 23.5q41 78 83 155q13 22 13.5 48.5t-15.5 40.5q-2 0 -2 3t2 3q66 29 93 77q86 162 88 165q14 26 2 45q-16 28 -70 28q-38 0 -67.5 -20t-44.5 -46t-24 -56t-11.5 -46t-2.5 -21q0 -3 -3 -3q-29 0 -41 15.5t-12 70.5q0 19 -3.5 35.5t-8.5 28t-11.5 20.5t-13 14.5t-11.5 9 t-9 4.5l-3 2q-1 0 -3 2v3l1 1q1 2 2.5 3.5t3.5 4t5 4.5t7 4.5t8.5 4t10.5 2.5t12 1q46 0 67 -35q38 35 153 35h32q98 0 138 -36q40 36 83 36q7 0 13.5 -1.5t11.5 -3.5t9 -4.5t6.5 -5.5t4.5 -5t3 -4l1 -1q1 -1 0 -4q0 -1 -1 -1t-2 -1q-3 0 -9 -2.5t-22 -19t-31 -44.5 l-96 -178q-10 -19 -10.5 -41t15.5 -37q2 -2 2 -4l-3 -3q-30 -12 -53.5 -33t-34.5 -42q-17 -33 -44.5 -84.5t-36.5 -69.5q-14 -26 -3 -45q18 -28 71 -28q38 0 67.5 20t44 46t24 56t11.5 46t2 21q1 3 4 3q28 0 40 -15.5t12 -70.5q0 -15 2 -28.5t5.5 -23.5t8 -19t9.5 -15 t10 -11t9.5 -8t8 -5t6.5 -3l2 -1q2 0 2 -2zM168 688q1 -1 3 -1h1q1 1 2.5 2t2.5 1q2 0 2 3q0 2 -1 3q-30 27 -71 27h-5q-3 0 -3 -4t3 -4q38 -1 66 -27zM352 715q-4 0 -4 4t4 4h8q83 0 134 -29q2 0 2 -3q0 -2 -1 -3l-2 -1l-2 -2h-2h-2q-49 30 -135 30zM327 642q0 -2 -4 -4 q-85 -2 -114 -117q-2 -6 -9 -49q-1 -11 -8.5 -18.5t-18.5 -7.5h-6q-4 0 -4 4t4 4q16 2 18 18q0 6 2 21t10.5 43t21.5 51.5t39.5 41t60.5 17.5h2h2q4 0 4 -4zM367 54h-1h-3q-44 0 -56 20q-7 12 2 30q3 5 34.5 65t42.5 80q28 52 85 77q10 3 12 15q0 12 -8 18q-10 9 -9 26.5 t9 32.5l19 34q26 50 77 144q26 49 49 58h2q9 0 15 9q4 7 -2 20q-16 29 -58 32q-3 0 -3 4t3 4h2h1q49 0 70 -37q8 -15 1 -27q-8 -13 -21 -13q-20 -8 -45 -54q-49 -94 -77 -144l-18 -34q-7 -13 -8 -29t5 -20q13 -8 11 -25q-2 -16 -16 -21q-54 -24 -82 -74q-24 -44 -76 -144 q-8 -15 -3 -23q9 -16 46 -16q4 0 4 -4t-4 -4zM199 12q2 0 2 -3q0 -2 -1 -3q-42 -29 -83 -29h-5q-3 0 -3 4t3 4q40 1 79 30q2 2 4 0q1 -1 4 -3zM661 37q5 -13 -1 -23q-21 -37 -70 -37h-2h-1q-4 0 -4 4t4 4q43 3 58 33q4 7 1 16q-3 8 -12 11q-5 2 -13.5 7t-22 30t-13.5 62 q0 59 -14.5 80t-47.5 22q-4 0 -4 4t3 4h2q39 0 57.5 -22.5t18.5 -87.5q0 -34 11 -56.5t22 -28.5l11 -6q12 -5 17 -16zM516 11l1 -1q1 -1 1 -4q0 -1 -2 -3q-50 -26 -146 -26h-8q-4 0 -4 4t4 4q98 0 148 28q2 1 4 -1h1z" />
<glyph unicode="&#x2000;" horiz-adv-x="362" />
<glyph unicode="&#x2001;" horiz-adv-x="724" />
<glyph unicode="&#x2002;" horiz-adv-x="362" />
<glyph unicode="&#x2003;" horiz-adv-x="724" />
<glyph unicode="&#x2004;" horiz-adv-x="241" />
<glyph unicode="&#x2005;" horiz-adv-x="181" />
<glyph unicode="&#x2006;" horiz-adv-x="120" />
<glyph unicode="&#x2007;" horiz-adv-x="120" />
<glyph unicode="&#x2008;" horiz-adv-x="90" />
<glyph unicode="&#x2009;" horiz-adv-x="144" />
<glyph unicode="&#x200a;" horiz-adv-x="40" />
<glyph unicode="&#x202f;" horiz-adv-x="144" />
<glyph unicode="&#x205f;" horiz-adv-x="181" />
</font>
</defs>
</svg>
